<svg xmlns="http://www.w3.org/2000/svg" xmlns:xlink="http://www.w3.org/1999/xlink" width="501" height="135" viewBox="0 0 501 135">
  <defs>
    <clipPath id="clip-path">
      <rect width="501" height="135" fill="none"/>
    </clipPath>
  </defs>
  <g id="點點橫" clip-path="url(#clip-path)">
    <g transform="translate(-1702 -617)">
      <circle id="Ellipse_7" data-name="Ellipse 7" cx="4" cy="4" r="4" transform="translate(1702 617)" fill="#e1e1e3"/>
    </g>
    <g transform="translate(-1676 -617)">
      <circle id="Ellipse_7-2" data-name="Ellipse 7" cx="4" cy="4" r="4" transform="translate(1702 617)" fill="#e1e1e3"/>
    </g>
    <g transform="translate(-1650 -617)">
      <circle id="Ellipse_7-3" data-name="Ellipse 7" cx="4" cy="4" r="4" transform="translate(1702 617)" fill="#e1e1e3"/>
    </g>
    <g transform="translate(-1624 -617)">
      <circle id="Ellipse_7-4" data-name="Ellipse 7" cx="4" cy="4" r="4" transform="translate(1702 617)" fill="#e1e1e3"/>
    </g>
    <g transform="translate(-1598 -617)">
      <circle id="Ellipse_7-5" data-name="Ellipse 7" cx="4" cy="4" r="4" transform="translate(1702 617)" fill="#e1e1e3"/>
    </g>
    <g transform="translate(-1572 -617)">
      <circle id="Ellipse_7-6" data-name="Ellipse 7" cx="4" cy="4" r="4" transform="translate(1702 617)" fill="#e1e1e3"/>
    </g>
    <g transform="translate(-1546 -617)">
      <circle id="Ellipse_7-7" data-name="Ellipse 7" cx="4" cy="4" r="4" transform="translate(1702 617)" fill="#e1e1e3"/>
    </g>
    <g transform="translate(-1520 -617)">
      <circle id="Ellipse_7-8" data-name="Ellipse 7" cx="4" cy="4" r="4" transform="translate(1702 617)" fill="#e1e1e3"/>
    </g>
    <g transform="translate(-1494 -617)">
      <circle id="Ellipse_7-9" data-name="Ellipse 7" cx="4" cy="4" r="4" transform="translate(1702 617)" fill="#e1e1e3"/>
    </g>
    <g transform="translate(-1468 -617)">
      <circle id="Ellipse_7-10" data-name="Ellipse 7" cx="4" cy="4" r="4" transform="translate(1702 617)" fill="#e1e1e3"/>
    </g>
    <g transform="translate(-1442 -617)">
      <circle id="Ellipse_7-11" data-name="Ellipse 7" cx="4" cy="4" r="4" transform="translate(1702 617)" fill="#e1e1e3"/>
    </g>
    <g transform="translate(-1416 -617)">
      <circle id="Ellipse_7-12" data-name="Ellipse 7" cx="4" cy="4" r="4" transform="translate(1702 617)" fill="#e1e1e3"/>
    </g>
    <g transform="translate(-1390 -617)">
      <circle id="Ellipse_7-13" data-name="Ellipse 7" cx="4" cy="4" r="4" transform="translate(1702 617)" fill="#e1e1e3"/>
    </g>
    <g transform="translate(-1364 -617)">
      <circle id="Ellipse_7-14" data-name="Ellipse 7" cx="4" cy="4" r="4" transform="translate(1702 617)" fill="#e1e1e3"/>
    </g>
    <g transform="translate(-1338 -617)">
      <circle id="Ellipse_7-15" data-name="Ellipse 7" cx="4" cy="4" r="4" transform="translate(1702 617)" fill="#e1e1e3"/>
    </g>
    <g transform="translate(-1312 -617)">
      <circle id="Ellipse_7-16" data-name="Ellipse 7" cx="4" cy="4" r="4" transform="translate(1702 617)" fill="#e1e1e3"/>
    </g>
    <g transform="translate(-1286 -617)">
      <circle id="Ellipse_7-17" data-name="Ellipse 7" cx="4" cy="4" r="4" transform="translate(1702 617)" fill="#e1e1e3"/>
    </g>
    <g transform="translate(-1260 -617)">
      <circle id="Ellipse_7-18" data-name="Ellipse 7" cx="4" cy="4" r="4" transform="translate(1702 617)" fill="#e1e1e3"/>
    </g>
    <g transform="translate(-1234 -617)">
      <circle id="Ellipse_7-19" data-name="Ellipse 7" cx="4" cy="4" r="4" transform="translate(1702 617)" fill="#e1e1e3"/>
    </g>
    <g transform="translate(-1208 -617)">
      <circle id="Ellipse_7-20" data-name="Ellipse 7" cx="4" cy="4" r="4" transform="translate(1702 617)" fill="#e1e1e3"/>
    </g>
    <g transform="translate(-1702 -589)">
      <circle id="Ellipse_7-21" data-name="Ellipse 7" cx="4" cy="4" r="4" transform="translate(1702 617)" fill="#e1e1e3"/>
    </g>
    <g transform="translate(-1676 -589)">
      <circle id="Ellipse_7-22" data-name="Ellipse 7" cx="4" cy="4" r="4" transform="translate(1702 617)" fill="#e1e1e3"/>
    </g>
    <g transform="translate(-1650 -589)">
      <circle id="Ellipse_7-23" data-name="Ellipse 7" cx="4" cy="4" r="4" transform="translate(1702 617)" fill="#e1e1e3"/>
    </g>
    <g transform="translate(-1624 -589)">
      <circle id="Ellipse_7-24" data-name="Ellipse 7" cx="4" cy="4" r="4" transform="translate(1702 617)" fill="#e1e1e3"/>
    </g>
    <g transform="translate(-1598 -589)">
      <circle id="Ellipse_7-25" data-name="Ellipse 7" cx="4" cy="4" r="4" transform="translate(1702 617)" fill="#e1e1e3"/>
    </g>
    <g transform="translate(-1572 -589)">
      <circle id="Ellipse_7-26" data-name="Ellipse 7" cx="4" cy="4" r="4" transform="translate(1702 617)" fill="#e1e1e3"/>
    </g>
    <g transform="translate(-1546 -589)">
      <circle id="Ellipse_7-27" data-name="Ellipse 7" cx="4" cy="4" r="4" transform="translate(1702 617)" fill="#e1e1e3"/>
    </g>
    <g transform="translate(-1520 -589)">
      <circle id="Ellipse_7-28" data-name="Ellipse 7" cx="4" cy="4" r="4" transform="translate(1702 617)" fill="#e1e1e3"/>
    </g>
    <g transform="translate(-1494 -589)">
      <circle id="Ellipse_7-29" data-name="Ellipse 7" cx="4" cy="4" r="4" transform="translate(1702 617)" fill="#e1e1e3"/>
    </g>
    <g transform="translate(-1468 -589)">
      <circle id="Ellipse_7-30" data-name="Ellipse 7" cx="4" cy="4" r="4" transform="translate(1702 617)" fill="#e1e1e3"/>
    </g>
    <g transform="translate(-1442 -589)">
      <circle id="Ellipse_7-31" data-name="Ellipse 7" cx="4" cy="4" r="4" transform="translate(1702 617)" fill="#e1e1e3"/>
    </g>
    <g transform="translate(-1416 -589)">
      <circle id="Ellipse_7-32" data-name="Ellipse 7" cx="4" cy="4" r="4" transform="translate(1702 617)" fill="#e1e1e3"/>
    </g>
    <g transform="translate(-1390 -589)">
      <circle id="Ellipse_7-33" data-name="Ellipse 7" cx="4" cy="4" r="4" transform="translate(1702 617)" fill="#e1e1e3"/>
    </g>
    <g transform="translate(-1364 -589)">
      <circle id="Ellipse_7-34" data-name="Ellipse 7" cx="4" cy="4" r="4" transform="translate(1702 617)" fill="#e1e1e3"/>
    </g>
    <g transform="translate(-1338 -589)">
      <circle id="Ellipse_7-35" data-name="Ellipse 7" cx="4" cy="4" r="4" transform="translate(1702 617)" fill="#e1e1e3"/>
    </g>
    <g transform="translate(-1312 -589)">
      <circle id="Ellipse_7-36" data-name="Ellipse 7" cx="4" cy="4" r="4" transform="translate(1702 617)" fill="#e1e1e3"/>
    </g>
    <g transform="translate(-1286 -589)">
      <circle id="Ellipse_7-37" data-name="Ellipse 7" cx="4" cy="4" r="4" transform="translate(1702 617)" fill="#e1e1e3"/>
    </g>
    <g transform="translate(-1260 -589)">
      <circle id="Ellipse_7-38" data-name="Ellipse 7" cx="4" cy="4" r="4" transform="translate(1702 617)" fill="#e1e1e3"/>
    </g>
    <g transform="translate(-1234 -589)">
      <circle id="Ellipse_7-39" data-name="Ellipse 7" cx="4" cy="4" r="4" transform="translate(1702 617)" fill="#e1e1e3"/>
    </g>
    <g transform="translate(-1208 -589)">
      <circle id="Ellipse_7-40" data-name="Ellipse 7" cx="4" cy="4" r="4" transform="translate(1702 617)" fill="#e1e1e3"/>
    </g>
    <g transform="translate(-1702 -561)">
      <circle id="Ellipse_7-41" data-name="Ellipse 7" cx="4" cy="4" r="4" transform="translate(1702 617)" fill="#e1e1e3"/>
    </g>
    <g transform="translate(-1676 -561)">
      <circle id="Ellipse_7-42" data-name="Ellipse 7" cx="4" cy="4" r="4" transform="translate(1702 617)" fill="#e1e1e3"/>
    </g>
    <g transform="translate(-1650 -561)">
      <circle id="Ellipse_7-43" data-name="Ellipse 7" cx="4" cy="4" r="4" transform="translate(1702 617)" fill="#e1e1e3"/>
    </g>
    <g transform="translate(-1624 -561)">
      <circle id="Ellipse_7-44" data-name="Ellipse 7" cx="4" cy="4" r="4" transform="translate(1702 617)" fill="#e1e1e3"/>
    </g>
    <g transform="translate(-1598 -561)">
      <circle id="Ellipse_7-45" data-name="Ellipse 7" cx="4" cy="4" r="4" transform="translate(1702 617)" fill="#e1e1e3"/>
    </g>
    <g transform="translate(-1572 -561)">
      <circle id="Ellipse_7-46" data-name="Ellipse 7" cx="4" cy="4" r="4" transform="translate(1702 617)" fill="#e1e1e3"/>
    </g>
    <g transform="translate(-1546 -561)">
      <circle id="Ellipse_7-47" data-name="Ellipse 7" cx="4" cy="4" r="4" transform="translate(1702 617)" fill="#e1e1e3"/>
    </g>
    <g transform="translate(-1520 -561)">
      <circle id="Ellipse_7-48" data-name="Ellipse 7" cx="4" cy="4" r="4" transform="translate(1702 617)" fill="#e1e1e3"/>
    </g>
    <g transform="translate(-1494 -561)">
      <circle id="Ellipse_7-49" data-name="Ellipse 7" cx="4" cy="4" r="4" transform="translate(1702 617)" fill="#e1e1e3"/>
    </g>
    <g transform="translate(-1468 -561)">
      <circle id="Ellipse_7-50" data-name="Ellipse 7" cx="4" cy="4" r="4" transform="translate(1702 617)" fill="#e1e1e3"/>
    </g>
    <g transform="translate(-1442 -561)">
      <circle id="Ellipse_7-51" data-name="Ellipse 7" cx="4" cy="4" r="4" transform="translate(1702 617)" fill="#e1e1e3"/>
    </g>
    <g transform="translate(-1416 -561)">
      <circle id="Ellipse_7-52" data-name="Ellipse 7" cx="4" cy="4" r="4" transform="translate(1702 617)" fill="#e1e1e3"/>
    </g>
    <g transform="translate(-1390 -561)">
      <circle id="Ellipse_7-53" data-name="Ellipse 7" cx="4" cy="4" r="4" transform="translate(1702 617)" fill="#e1e1e3"/>
    </g>
    <g transform="translate(-1364 -561)">
      <circle id="Ellipse_7-54" data-name="Ellipse 7" cx="4" cy="4" r="4" transform="translate(1702 617)" fill="#e1e1e3"/>
    </g>
    <g transform="translate(-1338 -561)">
      <circle id="Ellipse_7-55" data-name="Ellipse 7" cx="4" cy="4" r="4" transform="translate(1702 617)" fill="#e1e1e3"/>
    </g>
    <g transform="translate(-1312 -561)">
      <circle id="Ellipse_7-56" data-name="Ellipse 7" cx="4" cy="4" r="4" transform="translate(1702 617)" fill="#e1e1e3"/>
    </g>
    <g transform="translate(-1286 -561)">
      <circle id="Ellipse_7-57" data-name="Ellipse 7" cx="4" cy="4" r="4" transform="translate(1702 617)" fill="#e1e1e3"/>
    </g>
    <g transform="translate(-1260 -561)">
      <circle id="Ellipse_7-58" data-name="Ellipse 7" cx="4" cy="4" r="4" transform="translate(1702 617)" fill="#e1e1e3"/>
    </g>
    <g transform="translate(-1234 -561)">
      <circle id="Ellipse_7-59" data-name="Ellipse 7" cx="4" cy="4" r="4" transform="translate(1702 617)" fill="#e1e1e3"/>
    </g>
    <g transform="translate(-1208 -561)">
      <circle id="Ellipse_7-60" data-name="Ellipse 7" cx="4" cy="4" r="4" transform="translate(1702 617)" fill="#e1e1e3"/>
    </g>
    <g transform="translate(-1702 -533)">
      <circle id="Ellipse_7-61" data-name="Ellipse 7" cx="4" cy="4" r="4" transform="translate(1702 617)" fill="#e1e1e3"/>
    </g>
    <g transform="translate(-1676 -533)">
      <circle id="Ellipse_7-62" data-name="Ellipse 7" cx="4" cy="4" r="4" transform="translate(1702 617)" fill="#e1e1e3"/>
    </g>
    <g transform="translate(-1650 -533)">
      <circle id="Ellipse_7-63" data-name="Ellipse 7" cx="4" cy="4" r="4" transform="translate(1702 617)" fill="#e1e1e3"/>
    </g>
    <g transform="translate(-1624 -533)">
      <circle id="Ellipse_7-64" data-name="Ellipse 7" cx="4" cy="4" r="4" transform="translate(1702 617)" fill="#e1e1e3"/>
    </g>
    <g transform="translate(-1598 -533)">
      <circle id="Ellipse_7-65" data-name="Ellipse 7" cx="4" cy="4" r="4" transform="translate(1702 617)" fill="#e1e1e3"/>
    </g>
    <g transform="translate(-1572 -533)">
      <circle id="Ellipse_7-66" data-name="Ellipse 7" cx="4" cy="4" r="4" transform="translate(1702 617)" fill="#e1e1e3"/>
    </g>
    <g transform="translate(-1546 -533)">
      <circle id="Ellipse_7-67" data-name="Ellipse 7" cx="4" cy="4" r="4" transform="translate(1702 617)" fill="#e1e1e3"/>
    </g>
    <g transform="translate(-1520 -533)">
      <circle id="Ellipse_7-68" data-name="Ellipse 7" cx="4" cy="4" r="4" transform="translate(1702 617)" fill="#e1e1e3"/>
    </g>
    <g transform="translate(-1494 -533)">
      <circle id="Ellipse_7-69" data-name="Ellipse 7" cx="4" cy="4" r="4" transform="translate(1702 617)" fill="#e1e1e3"/>
    </g>
    <g transform="translate(-1468 -533)">
      <circle id="Ellipse_7-70" data-name="Ellipse 7" cx="4" cy="4" r="4" transform="translate(1702 617)" fill="#e1e1e3"/>
    </g>
    <g transform="translate(-1442 -533)">
      <circle id="Ellipse_7-71" data-name="Ellipse 7" cx="4" cy="4" r="4" transform="translate(1702 617)" fill="#e1e1e3"/>
    </g>
    <g transform="translate(-1416 -533)">
      <circle id="Ellipse_7-72" data-name="Ellipse 7" cx="4" cy="4" r="4" transform="translate(1702 617)" fill="#e1e1e3"/>
    </g>
    <g transform="translate(-1390 -533)">
      <circle id="Ellipse_7-73" data-name="Ellipse 7" cx="4" cy="4" r="4" transform="translate(1702 617)" fill="#e1e1e3"/>
    </g>
    <g transform="translate(-1364 -533)">
      <circle id="Ellipse_7-74" data-name="Ellipse 7" cx="4" cy="4" r="4" transform="translate(1702 617)" fill="#e1e1e3"/>
    </g>
    <g transform="translate(-1338 -533)">
      <circle id="Ellipse_7-75" data-name="Ellipse 7" cx="4" cy="4" r="4" transform="translate(1702 617)" fill="#e1e1e3"/>
    </g>
    <g transform="translate(-1312 -533)">
      <circle id="Ellipse_7-76" data-name="Ellipse 7" cx="4" cy="4" r="4" transform="translate(1702 617)" fill="#e1e1e3"/>
    </g>
    <g transform="translate(-1286 -533)">
      <circle id="Ellipse_7-77" data-name="Ellipse 7" cx="4" cy="4" r="4" transform="translate(1702 617)" fill="#e1e1e3"/>
    </g>
    <g transform="translate(-1260 -533)">
      <circle id="Ellipse_7-78" data-name="Ellipse 7" cx="4" cy="4" r="4" transform="translate(1702 617)" fill="#e1e1e3"/>
    </g>
    <g transform="translate(-1234 -533)">
      <circle id="Ellipse_7-79" data-name="Ellipse 7" cx="4" cy="4" r="4" transform="translate(1702 617)" fill="#e1e1e3"/>
    </g>
    <g transform="translate(-1208 -533)">
      <circle id="Ellipse_7-80" data-name="Ellipse 7" cx="4" cy="4" r="4" transform="translate(1702 617)" fill="#e1e1e3"/>
    </g>
    <g transform="translate(-1702 -505)">
      <circle id="Ellipse_7-81" data-name="Ellipse 7" cx="4" cy="4" r="4" transform="translate(1702 617)" fill="#e1e1e3"/>
    </g>
    <g transform="translate(-1676 -505)">
      <circle id="Ellipse_7-82" data-name="Ellipse 7" cx="4" cy="4" r="4" transform="translate(1702 617)" fill="#e1e1e3"/>
    </g>
    <g transform="translate(-1650 -505)">
      <circle id="Ellipse_7-83" data-name="Ellipse 7" cx="4" cy="4" r="4" transform="translate(1702 617)" fill="#e1e1e3"/>
    </g>
    <g transform="translate(-1624 -505)">
      <circle id="Ellipse_7-84" data-name="Ellipse 7" cx="4" cy="4" r="4" transform="translate(1702 617)" fill="#e1e1e3"/>
    </g>
    <g transform="translate(-1598 -505)">
      <circle id="Ellipse_7-85" data-name="Ellipse 7" cx="4" cy="4" r="4" transform="translate(1702 617)" fill="#e1e1e3"/>
    </g>
    <g transform="translate(-1572 -505)">
      <circle id="Ellipse_7-86" data-name="Ellipse 7" cx="4" cy="4" r="4" transform="translate(1702 617)" fill="#e1e1e3"/>
    </g>
    <g transform="translate(-1546 -505)">
      <circle id="Ellipse_7-87" data-name="Ellipse 7" cx="4" cy="4" r="4" transform="translate(1702 617)" fill="#e1e1e3"/>
    </g>
    <g transform="translate(-1520 -505)">
      <circle id="Ellipse_7-88" data-name="Ellipse 7" cx="4" cy="4" r="4" transform="translate(1702 617)" fill="#e1e1e3"/>
    </g>
    <g transform="translate(-1494 -505)">
      <circle id="Ellipse_7-89" data-name="Ellipse 7" cx="4" cy="4" r="4" transform="translate(1702 617)" fill="#e1e1e3"/>
    </g>
    <g transform="translate(-1468 -505)">
      <circle id="Ellipse_7-90" data-name="Ellipse 7" cx="4" cy="4" r="4" transform="translate(1702 617)" fill="#e1e1e3"/>
    </g>
    <g transform="translate(-1442 -505)">
      <circle id="Ellipse_7-91" data-name="Ellipse 7" cx="4" cy="4" r="4" transform="translate(1702 617)" fill="#e1e1e3"/>
    </g>
    <g transform="translate(-1416 -505)">
      <circle id="Ellipse_7-92" data-name="Ellipse 7" cx="4" cy="4" r="4" transform="translate(1702 617)" fill="#e1e1e3"/>
    </g>
    <g transform="translate(-1390 -505)">
      <circle id="Ellipse_7-93" data-name="Ellipse 7" cx="4" cy="4" r="4" transform="translate(1702 617)" fill="#e1e1e3"/>
    </g>
    <g transform="translate(-1364 -505)">
      <circle id="Ellipse_7-94" data-name="Ellipse 7" cx="4" cy="4" r="4" transform="translate(1702 617)" fill="#e1e1e3"/>
    </g>
    <g transform="translate(-1338 -505)">
      <circle id="Ellipse_7-95" data-name="Ellipse 7" cx="4" cy="4" r="4" transform="translate(1702 617)" fill="#e1e1e3"/>
    </g>
    <g transform="translate(-1312 -505)">
      <circle id="Ellipse_7-96" data-name="Ellipse 7" cx="4" cy="4" r="4" transform="translate(1702 617)" fill="#e1e1e3"/>
    </g>
    <g transform="translate(-1286 -505)">
      <circle id="Ellipse_7-97" data-name="Ellipse 7" cx="4" cy="4" r="4" transform="translate(1702 617)" fill="#e1e1e3"/>
    </g>
    <g transform="translate(-1260 -505)">
      <circle id="Ellipse_7-98" data-name="Ellipse 7" cx="4" cy="4" r="4" transform="translate(1702 617)" fill="#e1e1e3"/>
    </g>
    <g transform="translate(-1234 -505)">
      <circle id="Ellipse_7-99" data-name="Ellipse 7" cx="4" cy="4" r="4" transform="translate(1702 617)" fill="#e1e1e3"/>
    </g>
    <g transform="translate(-1208 -505)">
      <circle id="Ellipse_7-100" data-name="Ellipse 7" cx="4" cy="4" r="4" transform="translate(1702 617)" fill="#e1e1e3"/>
    </g>
  </g>
</svg>
