<svg xmlns="http://www.w3.org/2000/svg" xmlns:xlink="http://www.w3.org/1999/xlink" width="30" height="30" viewBox="0 0 30 30">
  <defs>
    <clipPath id="clip-path">
      <rect id="Rectangle_48" data-name="Rectangle 48" width="30" height="30" transform="translate(1500 212)" fill="#fff" stroke="#414143" stroke-width="1"/>
    </clipPath>
  </defs>
  <g id="icon-seal" transform="translate(-1500 -212)" clip-path="url(#clip-path)">
    <g id="stamp" transform="translate(1500 212)">
      <path id="Path_31" data-name="Path 31" d="M27.065,24.986,25.19,20.3a.879.879,0,0,0-.816-.552H18.228a18.273,18.273,0,0,1,2.726-9.085,6.969,6.969,0,0,0-1.059-8.594,6.817,6.817,0,0,0-9.807.027,6.956,6.956,0,0,0-1.046,8.561,18.359,18.359,0,0,1,2.73,9.091H5.626a.879.879,0,0,0-.816.552L2.935,24.986a.879.879,0,0,0,.816,1.205H5.082l1.632,3.323A.879.879,0,0,0,7.5,30h15a.879.879,0,0,0,.786-.486l1.632-3.323h1.332A.879.879,0,0,0,27.065,24.986ZM10.543,9.741A5.2,5.2,0,0,1,9.786,6.93a5.214,5.214,0,1,1,10.428.1,5.2,5.2,0,0,1-.76,2.713,20.027,20.027,0,0,0-2.985,10H13.531A20.112,20.112,0,0,0,10.543,9.741ZM6.221,21.5H23.779l1.172,2.929H5.049Zm15.736,6.738H8.044l-1-2.051h15.9Z"/>
    </g>
  </g>
</svg>
