<svg xmlns="http://www.w3.org/2000/svg" xmlns:xlink="http://www.w3.org/1999/xlink" width="30" height="30" viewBox="0 0 30 30">
  <defs>
    <clipPath id="clip-path">
      <rect id="Rectangle_23" data-name="Rectangle 23" width="30" height="30" transform="translate(1594 30)" fill="#fff" stroke="#707070" stroke-width="1"/>
    </clipPath>
  </defs>
  <g id="icon-back-1-hover" transform="translate(-1594 -30)" clip-path="url(#clip-path)">
    <g id="undo" transform="translate(1594 30)">
      <g id="Group_16" data-name="Group 16">
        <g id="Group_15" data-name="Group 15">
          <path id="Path_15" data-name="Path 15" d="M8.362,17.177l-5.508-6.3,5.508-6.3A1.226,1.226,0,1,0,6.515,2.954L.3,10.065a1.225,1.225,0,0,0,0,1.613L6.515,18.79a1.226,1.226,0,0,0,1.847-1.614Z" fill="#fff"/>
        </g>
      </g>
      <g id="Group_18" data-name="Group 18">
        <g id="Group_17" data-name="Group 17">
          <path id="Path_16" data-name="Path 16" d="M21.09,9.646H1.226a1.226,1.226,0,1,0,0,2.452H21.09a6.458,6.458,0,1,1,0,12.915H2.861a1.226,1.226,0,1,0,0,2.452H21.09a8.91,8.91,0,1,0,0-17.82Z" fill="#fff"/>
        </g>
      </g>
    </g>
  </g>
</svg>
