<svg xmlns="http://www.w3.org/2000/svg" xmlns:xlink="http://www.w3.org/1999/xlink" width="20" height="20" viewBox="0 0 20 20">
  <defs>
    <clipPath id="clip-path">
      <rect id="Rectangle_60" data-name="Rectangle 60" width="20" height="20" fill="#b9b9b9" stroke="#b9b9b9" stroke-width="1"/>
    </clipPath>
    <clipPath id="clip-path-2">
      <rect id="Rectangle_23" data-name="Rectangle 23" width="20" height="20" fill="#b9b9b9" stroke="#707070" stroke-width="0.667"/>
    </clipPath>
  </defs>
  <g id="icon-next-1-gray.svg" clip-path="url(#clip-path)">
    <g id="icon-back-1" clip-path="url(#clip-path-2)">
      <g id="undo" transform="translate(0 1.691)">
        <g id="Group_16" data-name="Group 16" transform="translate(14.221)">
          <g id="Group_15" data-name="Group 15">
            <path id="Path_15" data-name="Path 15" d="M.2,11.451l3.672-4.2L.2,3.051A.82.82,0,0,1,1.433,1.969L5.577,6.71a.817.817,0,0,1,0,1.075L1.433,12.527A.818.818,0,1,1,.2,11.451Z" transform="translate(0.002 -1.691)" fill="#b9b9b9"/>
          </g>
        </g>
        <g id="Group_18" data-name="Group 18" transform="translate(0 4.739)">
          <g id="Group_17" data-name="Group 17">
            <path id="Path_16" data-name="Path 16" d="M5.94,6.431H19.183a.817.817,0,1,1,0,1.635H5.94a4.305,4.305,0,1,0,0,8.61H18.093a.817.817,0,1,1,0,1.635H5.94a5.94,5.94,0,0,1,0-11.88Z" transform="translate(0 -6.43)" fill="#b9b9b9"/>
          </g>
        </g>
      </g>
    </g>
  </g>
</svg>
