<svg xmlns="http://www.w3.org/2000/svg" xmlns:xlink="http://www.w3.org/1999/xlink" width="100" height="100" viewBox="0 0 100 100">
  <defs>
    <clipPath id="clip-path">
      <rect id="Rectangle_8" data-name="Rectangle 8" width="100" height="100" transform="translate(912 526)" fill="#676767" stroke="#707070" stroke-width="1"/>
    </clipPath>
  </defs>
  <g id="icon-file" transform="translate(-912 -526)" clip-path="url(#clip-path)">
    <g id="surface1" transform="translate(916.513 526)">
      <path id="Path_5" data-name="Path 5" d="M68.153,43.289V24.364a2.191,2.191,0,0,0-.6-1.438L46.332.646A2.115,2.115,0,0,0,44.81,0H11.171A11.208,11.208,0,0,0,0,11.275v63.61A11.137,11.137,0,0,0,11.171,86.078H37.724A28.662,28.662,0,1,0,68.153,43.289ZM46.895,7.316,61.13,22.3H51.9a5.034,5.034,0,0,1-5-5.022ZM11.171,81.909a6.983,6.983,0,0,1-7-7.024V11.275a7.04,7.04,0,0,1,7-7.107H42.726v13.11A9.189,9.189,0,0,0,51.9,26.469H63.985V42.747c-.625-.021-1.125-.083-1.667-.083a29.082,29.082,0,0,0-19.008,7.17H16.84a2.084,2.084,0,1,0,0,4.168H39.433a33.16,33.16,0,0,0-3.668,6.461H16.84a2.084,2.084,0,0,0,0,4.169H34.41a28.6,28.6,0,0,0,1.25,17.3H11.171ZM62.3,95.853a24.49,24.49,0,1,1,24.489-24.49A24.515,24.515,0,0,1,62.3,95.853Zm0,0" fill="#676767"/>
      <path id="Path_6" data-name="Path 6" d="M18.316,47.5H39.429a2.084,2.084,0,0,0,0-4.169H18.316a2.084,2.084,0,1,0,0,4.169Zm0,0" transform="translate(-1.476 -3.939)" fill="#676767"/>
      <path id="Path_7" data-name="Path 7" d="M68.572,61.513a2.069,2.069,0,0,0-3.043,0L53.316,74.622a2.077,2.077,0,0,0,.1,2.939,2.128,2.128,0,0,0,2.98-.1l8.629-9.233V90.984a2.084,2.084,0,0,0,4.169,0V68.224l8.566,9.233a2.08,2.08,0,0,0,3.043-2.835Zm0,0" transform="translate(-4.796 -5.531)" fill="#676767"/>
    </g>
  </g>
</svg>
