<svg xmlns="http://www.w3.org/2000/svg" xmlns:xlink="http://www.w3.org/1999/xlink" width="30" height="30" viewBox="0 0 30 30">
  <defs>
    <clipPath id="clip-path">
      <rect id="Rectangle_71" data-name="Rectangle 71" width="30" height="30" transform="translate(1447 383)" fill="#5d95ea" stroke="#414143" stroke-width="1"/>
    </clipPath>
  </defs>
  <g id="icon-clear-blue" transform="translate(-1447 -383)" clip-path="url(#clip-path)">
    <g id="delete" transform="translate(1449.749 383)">
      <path id="Path_43" data-name="Path 43" d="M24.426,6.706,23.764,4.72A1.847,1.847,0,0,0,22.01,3.456H16.442V1.643A1.645,1.645,0,0,0,14.8,0H9.7A1.645,1.645,0,0,0,8.06,1.643V3.456H2.493A1.847,1.847,0,0,0,.738,4.72L.076,6.706a1.487,1.487,0,0,0,1.41,1.957h.692L3.7,27.506A2.726,2.726,0,0,0,6.4,30h12a2.726,2.726,0,0,0,2.7-2.494L22.633,8.662h.383a1.486,1.486,0,0,0,1.41-1.957ZM9.818,1.758h4.867v1.7H9.818Zm9.539,25.607a.959.959,0,0,1-.949.878H6.4a.959.959,0,0,1-.949-.878L3.942,8.662H20.869ZM1.863,6.9l.543-1.628a.091.091,0,0,1,.087-.063H22.01a.092.092,0,0,1,.087.063L22.64,6.9Zm0,0" fill="#5d95ea"/>
      <path id="Path_44" data-name="Path 44" d="M16.554,27.3H16.6a.879.879,0,0,0,.877-.833L18.3,10.627a.879.879,0,1,0-1.756-.092l-.825,15.844a.879.879,0,0,0,.832.924Zm0,0" fill="#5d95ea"/>
      <path id="Path_45" data-name="Path 45" d="M7.064,26.472a.879.879,0,0,0,.877.831H7.99a.879.879,0,0,0,.83-.925L7.955,10.533a.879.879,0,1,0-1.755.1Zm0,0" fill="#5d95ea"/>
      <path id="Path_46" data-name="Path 46" d="M12.261,27.3a.879.879,0,0,0,.879-.879V10.581a.879.879,0,1,0-1.758,0V26.424A.879.879,0,0,0,12.261,27.3Zm0,0" fill="#5d95ea"/>
    </g>
  </g>
</svg>
