<svg xmlns="http://www.w3.org/2000/svg" xmlns:xlink="http://www.w3.org/1999/xlink" width="20" height="20" viewBox="0 0 20 20">
  <defs>
    <clipPath id="clip-path">
      <rect id="Rectangle_79" data-name="Rectangle 79" width="20" height="20" transform="translate(365 234)" fill="#fff" stroke="#707070" stroke-width="1"/>
    </clipPath>
  </defs>
  <g id="icon-people" transform="translate(-365 -234)" clip-path="url(#clip-path)">
    <g id="user" transform="translate(365 234)">
      <g id="Group_56" data-name="Group 56">
        <path id="Path_51" data-name="Path 51" d="M17.071,12.929a9.962,9.962,0,0,0-3.8-2.384,5.781,5.781,0,1,0-6.542,0A10.016,10.016,0,0,0,0,20H1.563a8.438,8.438,0,0,1,16.875,0H20A9.935,9.935,0,0,0,17.071,12.929ZM10,10a4.219,4.219,0,1,1,4.219-4.219A4.224,4.224,0,0,1,10,10Z" fill="#fff"/>
      </g>
    </g>
  </g>
</svg>
