<svg xmlns="http://www.w3.org/2000/svg" xmlns:xlink="http://www.w3.org/1999/xlink" width="100" height="100" viewBox="0 0 100 100">
  <defs>
    <clipPath id="clip-path">
      <rect id="Rectangle_8" data-name="Rectangle 8" width="100" height="100" transform="translate(914 427)" fill="#676767" stroke="#707070" stroke-width="1"/>
    </clipPath>
  </defs>
  <g id="icon-addimg" transform="translate(-914 -427)" clip-path="url(#clip-path)">
    <g id="_34-Add-image" data-name="34-Add-image" transform="translate(906.857 419.857)">
      <path id="Path_73" data-name="Path 73" d="M103.571,85.714H92.857V75a3.571,3.571,0,0,0-7.143,0V85.714H75a3.571,3.571,0,0,0,0,7.143H85.714v10.714a3.571,3.571,0,0,0,7.143,0V92.857h10.714a3.571,3.571,0,1,0,0-7.143Z" fill="#676767"/>
      <path id="Path_74" data-name="Path 74" d="M60.714,85.714H17.857a3.571,3.571,0,0,1-3.571-3.571v-9.25L28.571,58.607l8.179,8.214a3.571,3.571,0,0,0,5.071,0L60.714,47.893,76.036,63.25a3.586,3.586,0,1,0,5.071-5.071L63.25,40.321a3.571,3.571,0,0,0-5.071,0L39.286,59.25l-8.179-8.214a3.571,3.571,0,0,0-5.071,0L14.286,62.821V17.857a3.571,3.571,0,0,1,3.571-3.571H82.143a3.571,3.571,0,0,1,3.571,3.571V60.714a3.571,3.571,0,0,0,7.143,0V17.857A10.714,10.714,0,0,0,82.143,7.143H17.857A10.714,10.714,0,0,0,7.143,17.857V82.143A10.714,10.714,0,0,0,17.857,92.857H60.714a3.571,3.571,0,0,0,0-7.143Z" fill="#676767"/>
    </g>
  </g>
</svg>
