<svg xmlns="http://www.w3.org/2000/svg" xmlns:xlink="http://www.w3.org/1999/xlink" width="349.59" height="81" viewBox="0 0 349.59 81">
  <defs>
    <clipPath id="clip-path">
      <rect id="Rectangle_1" data-name="Rectangle 1" width="81" height="81" fill="none"/>
    </clipPath>
  </defs>
  <g id="logo" transform="translate(-80 -41)">
    <g id="Group_3" data-name="Group 3" transform="translate(80 41)">
      <path id="Path_1" data-name="Path 1" d="M298.059,113.617l-13.512-11.872,1.965-3.124L300.9,111.267Z" transform="translate(-237.37 -82.27)" fill="#414143"/>
      <g id="Group_2" data-name="Group 2">
        <g id="Group_1" data-name="Group 1" clip-path="url(#clip-path)">
          <path id="Path_2" data-name="Path 2" d="M40.3,0A40.5,40.5,0,1,1,17.134,73.583l1.827-1.142a38.541,38.541,0,0,0,59-40.962,7.759,7.759,0,0,0-13.188-3.5L50,14.994l.313-.421A7.757,7.757,0,0,0,45,2.239,38.549,38.549,0,0,0,1.979,40.5a38.378,38.378,0,0,0,9.8,25.674l-.9,1.954A40.5,40.5,0,0,1,40.3,0" transform="translate(0 0)" fill="#414143"/>
          <path id="Path_3" data-name="Path 3" d="M59.186,176.061a7.313,7.313,0,0,1-1.089,1.67,8.8,8.8,0,0,1-4.016,2.442l26.881-30.6a3.463,3.463,0,1,0-1.244-1.093l-26.881,30.6a8.8,8.8,0,0,1,1.9-4.3,7.316,7.316,0,0,1,1.516-1.3L77.321,127.5s9.706.3,13.174-3.418l13.281,11.669c-3.237,3.917-1.694,13.5-1.694,13.5Z" transform="translate(-44.076 -103.509)" fill="#414143"/>
        </g>
      </g>
    </g>
    <path id="Path_17" data-name="Path 17" d="M4.883,0V-35.645l2.588-1.221h9.253a12.082,12.082,0,0,1,9.033,3.54,11.821,11.821,0,0,1,3.3,8.667v12.451a11.873,11.873,0,0,1-3.3,8.667A12.082,12.082,0,0,1,16.724,0ZM9.766-4.395h6.958a7.157,7.157,0,0,0,5.688-2.515,7.8,7.8,0,0,0,1.758-5.3V-24.658a7.8,7.8,0,0,0-1.758-5.3,7.157,7.157,0,0,0-5.688-2.515H9.766ZM37.6-9.277v-8.3a9.514,9.514,0,0,1,3.027-7.007,9.772,9.772,0,0,1,7.1-2.759,9.878,9.878,0,0,1,7.1,2.759,9.411,9.411,0,0,1,3.027,7.007v8.3a9.514,9.514,0,0,1-3.027,7.007,9.772,9.772,0,0,1-7.1,2.759,9.878,9.878,0,0,1-7.1-2.759A9.411,9.411,0,0,1,37.6-9.277Zm4.883,0a5.129,5.129,0,0,0,1.526,4.114,5.529,5.529,0,0,0,3.723,1.306,5.529,5.529,0,0,0,3.723-1.306,5.129,5.129,0,0,0,1.526-4.114v-8.3a5.129,5.129,0,0,0-1.526-4.114A5.529,5.529,0,0,0,47.729-23a5.529,5.529,0,0,0-3.723,1.306,5.129,5.129,0,0,0-1.526,4.114ZM68.408.977V-22.412H62.134v-.244l1.978-4.2h4.3v-8.789l4.639-2.2h.244v10.986h6.274v.244l-1.978,4.2h-4.3V-1.221L68.652.977Zm18.652,0V-22.412H80.786v-.244l1.978-4.2h4.3v-8.789l4.639-2.2h.244v10.986h6.274v.244l-1.978,4.2h-4.3V-1.221L87.3.977Zm35.693-11.792v1.538a9.514,9.514,0,0,1-3.027,7.007,9.772,9.772,0,0,1-7.1,2.759,9.878,9.878,0,0,1-7.1-2.759,9.411,9.411,0,0,1-3.027-7.007v-8.3a9.514,9.514,0,0,1,3.027-7.007,9.772,9.772,0,0,1,7.1-2.759,10.041,10.041,0,0,1,7.1,2.759,8.485,8.485,0,0,1,3.027,6.3v.049L107.861-6.567a3.83,3.83,0,0,0,1.025,1.392,5.544,5.544,0,0,0,3.735,1.318,5.5,5.5,0,0,0,3.723-1.318,4.332,4.332,0,0,0,1.526-3.442l4.639-2.2ZM107.373-11.5l10.205-8.276a4.112,4.112,0,0,0-1.221-1.9A5.544,5.544,0,0,0,112.622-23a5.529,5.529,0,0,0-3.723,1.306,5.129,5.129,0,0,0-1.526,4.114Zm27.588,2.222a5.129,5.129,0,0,0,1.526,4.114,5.529,5.529,0,0,0,3.723,1.306,5.529,5.529,0,0,0,3.723-1.306,5.129,5.129,0,0,0,1.526-4.114v-8.3a5.129,5.129,0,0,0-1.526-4.114A5.529,5.529,0,0,0,140.21-23a5.529,5.529,0,0,0-3.723,1.306,5.129,5.129,0,0,0-1.526,4.114Zm-4.883,0v-8.3a9.514,9.514,0,0,1,3.027-7.007,9.772,9.772,0,0,1,7.1-2.759,7.012,7.012,0,0,1,5.249,2.075V-35.645l4.639-2.2h.244V-9.277a9.514,9.514,0,0,1-3.027,7.007,9.772,9.772,0,0,1-7.1,2.759,9.878,9.878,0,0,1-7.1-2.759A9.411,9.411,0,0,1,130.078-9.277Zm53.687-2.246a11.939,11.939,0,0,1-3.271,8.472A11.835,11.835,0,0,1,171.46.488a11.835,11.835,0,0,1-9.033-3.54,11.532,11.532,0,0,1-3.3-8.179l4.639-2.2h.244v2a7.368,7.368,0,0,0,1.758,5,7.157,7.157,0,0,0,5.688,2.515,7.2,7.2,0,0,0,5.688-2.515,7.386,7.386,0,0,0,1.733-5.054,6.812,6.812,0,0,0-1.416-4.565q-1.953-2.295-6.006-2.295a11.1,11.1,0,0,1-7.69-2.93,8.131,8.131,0,0,1-2.441-6.372q0-4.907,3.027-7.373a10.892,10.892,0,0,1,7.1-2.344,10.892,10.892,0,0,1,7.1,2.344,8.25,8.25,0,0,1,3.027,6.763l-4.639,2.2h-.244V-28a5.182,5.182,0,0,0-1.587-4.15A5.384,5.384,0,0,0,171.46-33.5a5.056,5.056,0,0,0-3.809,1.489,5.515,5.515,0,0,0-1.44,4,5.284,5.284,0,0,0,1.1,3.638,5.282,5.282,0,0,0,4.15,1.636q5.908,0,9.033,2.783Q183.765-17.041,183.765-11.523Zm9.18-20.728a2.921,2.921,0,0,1-.854-2.112,2.921,2.921,0,0,1,.854-2.112,2.786,2.786,0,0,1,2.075-.879,2.786,2.786,0,0,1,2.075.879,2.921,2.921,0,0,1,.854,2.112,2.921,2.921,0,0,1-.854,2.112,2.786,2.786,0,0,1-2.075.879A2.786,2.786,0,0,1,192.944-32.251ZM192.578.977V-25.635l4.639-2.2h.244V-1.221l-4.639,2.2ZM210.889-9.277a5.129,5.129,0,0,0,1.526,4.114,5.529,5.529,0,0,0,3.723,1.306,5.529,5.529,0,0,0,3.723-1.306,5.129,5.129,0,0,0,1.526-4.114v-8.3a5.129,5.129,0,0,0-1.526-4.114A5.529,5.529,0,0,0,216.138-23a5.529,5.529,0,0,0-3.723,1.306,5.129,5.129,0,0,0-1.526,4.114Zm-4.883,0v-8.3a9.514,9.514,0,0,1,3.027-7.007,9.772,9.772,0,0,1,7.1-2.759,9.772,9.772,0,0,1,7.1,2.759,9.462,9.462,0,0,1,3.027,7.007V.732a9.514,9.514,0,0,1-3.027,7.007,9.772,9.772,0,0,1-7.1,2.759h-7.52v-.244l1.953-4.1h5.566a5.529,5.529,0,0,0,3.723-1.306A5.129,5.129,0,0,0,221.387.732V-1.587A6.675,6.675,0,0,1,216.138.488a9.878,9.878,0,0,1-7.1-2.759A9.411,9.411,0,0,1,206.006-9.277ZM234.326.977V-17.578a9.514,9.514,0,0,1,3.027-7.007,9.772,9.772,0,0,1,7.1-2.759,9.878,9.878,0,0,1,7.1,2.759,9.411,9.411,0,0,1,3.027,7.007V-1.221l-4.639,2.2h-.244V-17.578a5.129,5.129,0,0,0-1.526-4.114A5.529,5.529,0,0,0,244.458-23a5.529,5.529,0,0,0-3.723,1.306,5.129,5.129,0,0,0-1.526,4.114V-1.221L234.57.977Z" transform="translate(175 100)" fill="#414143"/>
  </g>
</svg>
