<svg xmlns="http://www.w3.org/2000/svg" width="509.765" height="252.754" viewBox="0 0 509.765 252.754">
  <path id="sugn-blue" d="M12.38,9.215C8.571,6.078,7.9,2.045,7.9-2.212c0-29.8,14.565-63.413,22.407-90.525.672-1.793.672-4.033.9-6.5,1.344-1.569,3.585-4.257,3.585-6.5,0-.672-.224-1.344-.224-1.793,0-1.344,1.569-1.569,2.017-2.689,1.344-4.257,2.017-8.515,3.361-12.548,0-1.12.9-2.017,1.569-2.913.9-4.033,1.12-8.067,2.913-9.411,1.569-3.137,1.793-6.5,2.465-9.411.224-1.12,1.344-1.344,1.344-2.689,2.017-4.706,2.465-9.635,3.809-13.668.672-1.569,2.017-4.257,2.017-5.826,0-.448-.224-.672-.224-1.12,0-.224.9-.448.9-.448,1.344-4.257,1.793-8.963,4.257-13v-.224c0-.448-.448-.9-.448-1.12,0-2.241,2.017-5.378,2.465-7.618,1.569-4.033,1.793-8.963,2.689-13.892,1.569-6.946,3.585-11.876,3.585-17.254-.9-8.739-7.17-14.565-15.685-14.565a35.962,35.962,0,0,0-13,3.361c-10.755,4.481-18.374,9.859-18.374,10.307-1.12,0-1.344.448-1.344,1.12v.672c-3.361,0-10.98,6.5-10.98,6.5v.224a15.845,15.845,0,0,0-3.361,3.361c-15.909,12.772-30.7,27.785-30.7,46.831.672,6.05,1.569,7.394,2.465,7.843,2.465,8.291,10.307,11.876,12.548,11.876a9.7,9.7,0,0,1,.224-1.12c0-3.137-2.465-3.361-3.585-5.6-1.12-2.913-3.361-4.706-3.361-7.843,0-.672.224-1.793.224-2.465a5.032,5.032,0,0,0-1.344-3.137,31.386,31.386,0,0,0,2.465-11.2c.9-1.12,2.017-.448,2.017-2.465v-1.793c2.913-4.481,8.963-10.307,12.324-15.909H-.84c.672,0,6.5-6.722,6.946-6.946,1.793-1.568,3.585-3.137,4.481-5.6,6.5-2.465,11.428-8.291,17.478-11.652,8.963-3.809,19.046-10.307,27.561-10.307,4.481,0,4.257,2.689,4.257,6.722,0,2.017-.224,4.033-.224,5.826,0,.9.224,1.793.224,2.689-2.689,2.689-2.689,7.17-3.361,10.98-2.017,9.859-4.93,18.6-7.618,26.889C42.63-155.7,33.219-132.623,29.186-113.576c-1.569,4.033-1.793,7.843-3.809,11.2-2.465,7.843-4.257,13-6.274,19.27-.224,2.913-3.809,9.859-3.809,11.876,0,.224,0,.448.224.448L13.5-66.969v.224c0,.224.448.9.448,1.12,0,3.585-4.033,8.067-4.481,12.772-3.585,11.2-5.6,21.063-8.291,30.7a.694.694,0,0,0-.224.448,1.905,1.905,0,0,0,.672,1.12C1.177-18.57.056-16.553-.168-14.536c0,.9.224,1.12.224,1.793,0,2.241-.672,4.257-.672,5.826A3.9,3.9,0,0,0,.5-3.781c.224,0-.672,1.12-.672,2.241S.953-.868.953-.42C.5.252.056.476.056.7v.672c0,2.241,3.361,6.5,3.361,6.05,0,.448,0,.672.672.9,2.689,4.93,14.117,8.515,17.926,8.515,8.291,0,21.287-7.618,22.407-8.291,2.465-1.569,5.826-4.481,6.274-4.481.224,0,.672.224.9.224.448,0,0-.448.448-.9C55.178,1.373,67.278-5.573,67.278-7.366c0-.224-.224-.448-.224-.672,0-1.344,5.154-3.361,5.6-3.585,1.793,0,3.809-6.05,3.809-4.257,3.809-2.689,6.946-5.826,9.859-8.291,4.033-3.809,7.394-4.93,10.531-9.411,2.689-2.017,5.378-5.154,5.154-5.154h1.12a.219.219,0,0,0,.224-.224c0-.224-.448-.672-.448-1.12,0,.448,10.083-8.515,11.2-9.635,7.843-6.5,16.133-17.03,20.391-20.167.672-.9.672-2.689,1.12-3.137.224,0,.672.672,1.12.672,1.12,0,.448-2.017,1.569-2.465,1.793,0,1.344-1.12,2.689-1.12a.823.823,0,0,1,.672.224c-2.689,11.2-6.722,21.287-7.17,33.163v8.515a2.757,2.757,0,0,0-.448,1.12,9.232,9.232,0,0,1,.448,2.017v3.585c0,1.12,1.12,2.913,1.12,4.706,0,.448-.672.9-.672,1.344,0,2.689,4.033,6.946,4.93,8.963C148.168-.644,157.8.7,164.974.7a25.48,25.48,0,0,0,9.859-2.689c2.689,0,11.2-2.689,16.357-7.618,1.12-.672,2.465-.224,3.361-1.12,3.585-2.241,11.876-10.755,13.22-10.755.448,0,.9.224,1.344.224,2.017,0,5.6-6.05,4.706-5.378,1.344-1.793,4.257-2.241,4.257-4.481v-.672h.9c1.568,0,10.307-8.963,14.341-13.22,7.618-7.17,15.013-17.254,20.615-23.079.672-2.017,5.378-6.274,6.946-7.843,1.344-3.809,2.689-5.154,6.946-8.963,1.12-1.344,2.689-6.274,3.361-6.722a10.8,10.8,0,0,1,2.241-1.793c6.722-11.876,16.357-25.1,22.631-38.092,3.137-7.17,4.706-16.133,8.963-21.735.9-3.361,3.137-10.755,3.137-13.668v-.448c2.241-7.394,3.809-15.685,3.809-21.287,0-2.465-1.569-4.93-1.569-6.722v-1.12c-1.344-6.05-9.859-10.083-14.117-10.083-5.378,0-4.706,2.913-7.843,6.722-1.793.448-2.913,2.465-2.913,4.481,0,2.913,1.569,4.033,4.257,4.033,3.585,0,2.689-2.913,3.809-2.913,1.344,0,1.793-2.241,3.361-2.241h1.12c.672-2.017,1.793-3.137,3.361-3.137a11.986,11.986,0,0,1,2.913,8.515c0,7.618-2.241,16.581-2.913,22.407-1.569,3.585-2.241,8.291-4.93,12.548-1.344,4.481-2.913,6.05-3.809,8.291-.448,1.344-.224,3.361-1.12,4.481-1.569,3.585-4.481,7.394-4.481,10.98a1.679,1.679,0,0,0,.224,1.12h-.672c-2.913,0-12.1,21.735-13.22,24.2-2.241,3.585-5.6,6.05-5.6,9.635-4.93,2.017-6.946,8.515-9.411,12.1a14.637,14.637,0,0,0-3.361,5.378,134.266,134.266,0,0,0-9.635,9.411c-1.793.9-.9,2.241-2.017,3.809-1.12,1.12-2.465,1.344-2.689,1.793C236-60.247,232.644-55.318,232.2-54.2c-2.241.448-5.826,4.481-6.946,6.946-.448,1.344-4.481,4.257-4.033,4.257-9.635,9.635-21.959,18.6-31.146,25.768-9.859,7.843-19.942,9.635-24.424,10.531-2.017.448-3.809,1.344-5.6,1.344a1.679,1.679,0,0,1-1.12-.224c-8.739-1.12-9.859-6.05-12.548-8.515-2.017-3.361-4.033-11.652-4.033-17.7,0-2.017.672-3.585.672-4.93,0-.224-.672-.672-.672-.672h.9v-.224a2.84,2.84,0,0,0-.448-1.344c.224-2.241.672-3.361.9-5.826a4.558,4.558,0,0,1-.224-1.12v-.448a321.336,321.336,0,0,1,8.963-35.852c3.585-4.706,4.481-14.341,9.859-19.494,2.017-7.394,9.635-14.117,11.876-18.15,3.361-6.05,9.859-15.685,10.083-16.133,7.394-13.668,17.478-30.25,20.839-45.711a10.776,10.776,0,0,0-7.843-4.481c-6.722,0-13.893,17.926-15.461,20.839,0,.224-1.12,0-1.12.448-.448.9-3.361,7.17-3.361,6.274-5.154,6.946-6.946,14.789-9.411,19.27-.9,1.793-3.361,4.481-3.361,6.274,0,.448.224.448.224.672,0,.9-3.585,5.378-3.585,9.187-1.12,2.241-3.137,3.585-4.257,6.05v1.344a7.127,7.127,0,0,1-3.361,5.6,30.09,30.09,0,0,1-4.481,13c-.224,0-.672-.448-.9-.448A3.008,3.008,0,0,1,145.7-94.53c-1.344,1.12-1.569,3.137-2.689,4.481-.448.448-1.793.672-2.017,1.12-2.465,1.569-4.706,6.05-4.481,5.826-2.689,2.913-5.154,5.154-6.5,7.618-3.361,2.689-8.291,7.843-8.963,7.843-1.344,0-.672,2.017-1.344,2.689-21.735,21.735-10.531,7.618-15.237,14.341,0,.224-1.12.224-1.12.224-2.017,2.465-4.706,5.154-5.154,6.722-2.913.448-6.5,5.154-6.5,5.154v.224c0,.9-3.137,1.793-4.257,2.913-1.12,1.344-2.241,3.809-3.361,3.809H82.515c-.448,0-.672-.224-.672.448v1.344c-2.241,0-2.241,2.465-4.93,4.033-.224,0-.672-.448-.9-.448a22.426,22.426,0,0,1-4.033,4.481C67.278-20.362,58.315-10.5,56.523-9.383c0,.448-2.689.448-2.689,1.12a9.7,9.7,0,0,1,.224,1.12C54.058-6.022,50.7-5.8,50.7-5.8c-5.154,3.137-9.411,7.843-11.876,8.739-4.93,0-7.394,5.154-10.98,5.154a3.239,3.239,0,0,1-1.569-.448c-.9,0-.448,1.12-.9,1.12a20.375,20.375,0,0,1-6.946.9A29.619,29.619,0,0,1,12.38,9.215Zm393.7-88.06c-.224-.672-7.17,5.826-11.2,8.739-6.274,1.569-2.913,1.344-7.17,4.033-4.706,2.017-8.291,6.274-14.565,6.946v.448c0,2.017-8.067,5.378-12.1,7.394-11.428,6.05-7.618,4.481-17.254,9.411h-2.017c-1.793,0-5.378,2.913-10.307,2.913-.448,0-1.12-.224-1.568-.224-4.706,2.241-13.444,5.826-20.839,5.826-7.843,0-12.772-5.6-12.772-14.117,0-3.137,1.12-7.843,3.137-12.548h.448c-.448,0,15.237-3.585,15.237-4.481,0-.224-.224-.224-.448-.224-1.12,0-5.154,1.12-6.5,1.12-.224,0-.224,0-.224-.224l-5.6.224,10.307-2.465,1.569-1.793,11.2-5.378c2.017-.9,7.394-4.033,8.291-4.033-.9,1.344-13.22,8.067-14.565,9.635,3.585-.224,5.6-2.465,7.843-3.361,4.93-1.569,9.859-6.946,10.083-7.17A33.254,33.254,0,0,0,343.336-84c.224-.224.448-.448.448-.672-.224,0,0-.672.224-1.12,2.017-2.465,2.465-3.585,2.465-4.481,0-3.361-5.154-10.307-12.548-10.307-7.843,0-13,4.706-17.478,8.291-.9.448-2.465.672-3.361,1.344-1.12,2.241-7.618,8.739-10.307,10.531-1.568,4.033-5.154,7.17-7.618,10.531-2.465,3.585-5.826,10.98-5.826,13.444,0,.9.224,1.793.224,2.689,0,2.017-.672,4.481-.672,5.6,0,2.913,1.344,3.809,2.241,9.635,2.241.448,2.241,5.826,6.722,6.946-.224-.224,8.291,5.378,14.341,5.378h.672c1.569,0,2.913.448,3.585.448,4.93-.672,10.755-2.689,13.893-3.585,2.017-.448,4.257-.224,5.6-1.12.224,0,.448-1.344,1.12-1.344h1.12c2.241,0,5.6-3.361,7.843-3.361.224,0,.448.9,1.12.9,1.12,0,5.6-4.93,6.722-5.378s3.361-.224,4.257-.9c.224-.224.224-1.569.672-1.569.672,0,1.12.224,1.569.224,2.017,0,6.946-4.481,6.5-4.257,5.6-2.913,10.531-8.739,16.133-10.083,5.6-6.5,7.618-4.706,13.668-10.307,4.257-3.585,9.859-7.618,9.859-10.98A1.894,1.894,0,0,0,406.076-78.845Zm-90.749-2.017c5.826-5.826,12.772-11.652,19.718-11.652,1.793,0,4.257.9,4.706,3.137-1.793,2.465-6.722,5.826-6.5,6.05-.448.224,0,1.12-.672,1.569-.224.448-2.465.672-3.361,1.344-3.137,2.689-7.394,7.843-11.652,7.843-.448,0-.448-.224-.672-.224,0,0-2.241,1.344-2.465,2.017l-5.378,2.241a.823.823,0,0,0,.224-.672v-.448c-1.793,1.569-4.257,2.017-6.5,3.585A144.1,144.1,0,0,1,315.326-80.862ZM440.359-105.51c0-3.585-8.739-7.618-12.324-7.618a4.5,4.5,0,0,0-2.913.9c0,7.618,6.5,8.739,11.876,10.98C437.67-103.269,440.359-102.373,440.359-105.51ZM480.02-72.123H479.8c0-.672,3.809-2.913,3.809-3.361h-.448c0-.224.224-1.793.224-2.913,0-.672,0-1.344-.448-1.344-1.344,1.568-2.017.448-3.361,1.344-6.274,4.93-11.428,7.843-15.909,11.876-8.291,7.17-18.822,13.444-26.216,20.391C431.4-40.3,422.433-35.823,416.159-31.79h-1.344c-.9,0-.224,1.12-1.12,1.569a17.554,17.554,0,0,1-9.187,2.913c-3.361,0-6.5,1.12-6.5-5.154A49.673,49.673,0,0,1,400.922-47.7c.672-1.793,2.689-3.137,3.361-4.93a23.081,23.081,0,0,0,1.569-7.17c0-.672-.224-1.12-.224-1.569,0-1.12,2.241-1.793,2.689-2.913,1.793-4.706,4.033-8.739,5.154-13-2.241-1.793-3.137-4.93-6.946-4.93-4.033,0-8.291,16.805-9.859,19.718-.224.448-1.569.224-1.569,1.569,0,.448.224.9.224,1.344,0,.672-2.017,4.257-2.689,6.274-2.465,5.826-5.154,13.22-5.154,19.718,0,8.515,5.6,15.461,16.805,15.461,5.826,0,10.307-4.257,14.789-6.5,9.187-6.05,16.357-11.428,22.855-16.357,10.755-8.515,18.6-13.22,25.1-21.511,2.689-.448,4.257-2.017,5.826-3.809C474.642-68.762,477.107-67.642,480.02-72.123Z" transform="translate(26.16 235.92)" fill="#145dcc"/>
</svg>
