<svg xmlns="http://www.w3.org/2000/svg" width="451.152" height="57.564" viewBox="0 0 451.152 57.564">
  <path id="裝飾" d="M29.172-13.624c-2.236.676-3.12,1.508-3.848,1.508-.208,0-.416-.1-.572-.1a1.258,1.258,0,0,0-.676.312,4.462,4.462,0,0,1-2.808.832c-.26,0-2.184.676-2.34.676a23.048,23.048,0,0,1-3.952.78c-.052-1.04-.052-.364-.052-.884,0-.052.052-.416.052-.52V-11.7c-.1,0-.156-.1-.156-.26,0-.1.052-.312.208-.364l-.052-.208a13.947,13.947,0,0,1-.26-2.392,12.687,12.687,0,0,1,.052-1.352c.364-.468.676-.728.676-1.248a1.028,1.028,0,0,0-.1-.52,1.754,1.754,0,0,0,1.56-1.2c-.364,0-.572-1.3-2.236-1.3-1.248,0-1.924,2.028-2.808,2.7a6.475,6.475,0,0,0-1.924,1.092c-5.668,3.068-11.6,5.98-17.42,9.048-1.4.728-3.692,1.508-4.316,2.08-.208.156-.312.416-.572.572a10.143,10.143,0,0,0-3.276,2.808c-.156.312-.156,1.04-.572,1.04A6.555,6.555,0,0,0-16.432.26c0,1.664.728,2.236,2.132,2.236a1.9,1.9,0,0,0-.572-1.3c.156-2.5,2.288-4,3.692-5.044C-8.84-5.564-5.824-6.6-3.224-8.32A9.361,9.361,0,0,0-.572-9.776c.26-.156.676-.156.936-.312,1.612-.728,2.184-1.456,3.068-1.716.1.052.156.1.26.1a2.122,2.122,0,0,0,1.3-.624l.624-.208c1.092,0,3.12-1.924,3.068-1.924.468-.312,1.144-.364,1.144-.572A5.829,5.829,0,0,1,12.22-16.12c.572,0,.936,4.42,1.144,4.42v.78c0,.676,0,.572-.052,1.456l-1.3.624A9.762,9.762,0,0,1,9.62-7.8h-.1c-.208.468-1.04.572-1.352.728-.208.156-.312.416-.468.52-.26.156-.676.156-.832.26s-.052.26-.156.364-.364.156-.52.312l-.572.572A4.1,4.1,0,0,0,4.056-2.08,2.727,2.727,0,0,0,4.628-.364L5.3,0A6.166,6.166,0,0,0,7.072.416a5.408,5.408,0,0,0,.78-.1c.364-.728,2.34-.676,3.224-1.352a11.527,11.527,0,0,0,2.548-2.912,3.569,3.569,0,0,0,1.04-1.56v-.052a12.2,12.2,0,0,0,.624-2.756,9.637,9.637,0,0,1,1.768-1.092c.208,0,.208.416.416.416a5.625,5.625,0,0,0,1.664-.728h.1c.26,0,.572.208.832.208.052,0,.988-.156.988-.312s-.26-.364-.26-.468a.112.112,0,0,1,.1-.1c.26,0,.676.676.936.676.208,0,.624-.832.936-.832.26,0,.52.26.676.26.26-.1,1.04-.572,1.2-.624a2.142,2.142,0,0,0,.468.1.4.4,0,0,0,.26-.1,10.464,10.464,0,0,1,1.976-1.04c.052,0,.052,0,.052.052v.1c0,.1,0,.208.1.208.468,0,.676-.728,1.144-.728,1.2-.26.1-.208,1.2-.676l.624-1.144a7.193,7.193,0,0,0-1.456.468h.26ZM12.532-5.2c-.364.26-1.352,2.288-1.664,2.288-.1,0-.156-.156-.312-.156a.644.644,0,0,1-.156.1l-.312.26c-.052.052-.052.312-.208.416-.312.312-1.664.832-1.716,1.2-.988.156-1.2,0-2.028.208a1.6,1.6,0,0,1-.572-1.092,2.845,2.845,0,0,1,.624-1.508l.364-.468c.832-1.04,1.2-.832,2.444-1.612.364-.208.26-.364,1.092-.728l.624-.364c.572-.416,1.612-.624,2.236-1.144.26,0,.364.052.364.156,0,.936-.832,1.56-.832,2.184A.469.469,0,0,0,12.532-5.2Zm26-15.652c0-.832-2.028-1.768-2.86-1.768a1.045,1.045,0,0,0-.676.208c0,1.768,1.508,2.028,2.756,2.548C37.908-20.332,38.532-20.124,38.532-20.852Zm9.2,7.748h-.052c0-.156.884-.676.884-.78h-.1c0-.052.052-.416.052-.676,0-.156,0-.312-.1-.312-.312.364-.468.1-.78.312-1.456,1.144-2.652,1.82-3.692,2.756-1.924,1.664-4.368,3.12-6.084,4.732a31.668,31.668,0,0,1-4.94,3.328H32.6c-.208,0-.052.26-.26.364a4.074,4.074,0,0,1-2.132.676c-.78,0-1.508.26-1.508-1.2a11.528,11.528,0,0,1,.676-3.536c.156-.416.624-.728.78-1.144a5.356,5.356,0,0,0,.364-1.664c0-.156-.052-.26-.052-.364,0-.26.52-.416.624-.676.416-1.092.936-2.028,1.2-3.016-.52-.416-.728-1.144-1.612-1.144-.936,0-1.924,3.9-2.288,4.576-.052.1-.364.052-.364.364,0,.1.052.208.052.312,0,.156-.468.988-.624,1.456a12.689,12.689,0,0,0-1.2,4.576c0,1.976,1.3,3.588,3.9,3.588,1.352,0,2.392-.988,3.432-1.508,2.132-1.4,3.8-2.652,5.3-3.8,2.5-1.976,4.316-3.068,5.824-4.992a2.231,2.231,0,0,0,1.352-.884C46.488-12.324,47.06-12.064,47.736-13.1ZM87.1-14.3a1.847,1.847,0,0,0,.1-.52c0-.26-.1-.416-.572-.468-.364,0-1.612.988-2.028,1.092-.416.26-.468.624-.936.832-.052,0-.052,0-.052-.052,0-.1.1-.26.1-.312-1.768.832-3.12,1.82-4.94,1.976-.78,1.2-3.38,1.612-4.264,2.34-.416.312-.884,0-1.3.468C71.6-7.8,69.836-7.384,69.264-6.812a1.729,1.729,0,0,1-1.456.624c-.156-.884-.1-3.64-.26-4.472-.676-.884-1.768-1.456-2.34-2.444a10.03,10.03,0,0,1-2.808-.624v-.312c0-2.288-2.86-4.472-5.3-4.472a6.233,6.233,0,0,0-3.8.832c-.416.1-.988,0-1.3.156-.416.1-.832.572-1.248.78a22.952,22.952,0,0,0-8.736,7.176,4.539,4.539,0,0,0-.884,2.86c0,1.144,2.236,1.924,3.536,1.924,1.664,0,2.288-.78,3.276-1.092.572-.208,1.144-.468,1.716-.624q3.354-1.638,6.552-2.964a14.48,14.48,0,0,1,4.42-1.3,1.038,1.038,0,0,0-.1.468v.416c0,.832-.312,1.716-.312,2.5,0,.936.364,1.612,1.82,1.716a.5.5,0,0,0,.416-.572c0-.26-.1-.624-.1-.884s.052-.468.312-.572c0-.468-.052-1.04-.052-1.664,0-1.092,0-2.028,1.04-2.028,1.4,0,1.716,1.508,1.716,3.224,0,1.3-.156,2.756-.156,3.8A14.266,14.266,0,0,0,62.036-.156c-.1.1-.468.052-.572.208a5.272,5.272,0,0,0-1.2,1.924c-1.04,1.248-1.612,1.976-2.288,2.86a16.189,16.189,0,0,1-1.144,2.08c-1.04,1.508-2.028,2.6-2.392,4.16-.884,0-.884,1.092-1.144,1.612-.208.312-.468.572-.624.78-.156.312-.26.728-.416.988-1.56,3.12-3.38,6.4-4.628,9.62a.3.3,0,0,1,.312.312c0,.052-.364.364-.416.468-.208.26-.26.676-.624.988-.052,1.82-1.144,3.8-1.144,5.72,0,.624.364,1.82.572,1.82h.312c.1,0,.156,0,.156.052a1.058,1.058,0,0,1-.052.26c0,.208.416.156.572.26s0,.468.208.624c.156.156.572,0,.572.364a7.636,7.636,0,0,0,3.64-.78,37.54,37.54,0,0,0,4.472-4.94c.468-.624.676-1.352.988-1.82.572-.364,2.028-3.64,2.028-4.108a.537.537,0,0,0-.208-.416c1.04-.312,1.04-1.352,1.352-1.976.1-.1.468-.364.468-.468v-.312c0-.208.208-.1.312-.208a15.185,15.185,0,0,0,.988-2.6c.156-.52.728-.884.728-1.352,0-.208-.052-.416-.052-.52a40.276,40.276,0,0,1,1.716-4.576A28.312,28.312,0,0,0,65.208,7.9c.26-1.3,1.144-3.016,1.144-4.212,0-.208-.1-.312-.1-.52,0,0,.1-.624.1-.676a1.894,1.894,0,0,1,.416-.676,24.779,24.779,0,0,0,.468-3.432c.364-2.028-.26-1.352.884-2.652,1.4-1.4,2.548-1.3,3.9-2.5.624-.572,1.768-.468,2.34-1.04.416-.364,1.092-.364,1.3-.572.624-.572,1.56-.676,2.08-1.092,1.872-1.456,1.456-.468,3.536-1.612C83.2-12.064,85.592-12.688,87.1-14.3ZM52.884-16.016a37.394,37.394,0,0,1,4.836-.728,5.139,5.139,0,0,1,2.34.52,17.983,17.983,0,0,1,.676,3.484c-1.04.312-3.068.676-3.8,1.3h-.26a4.694,4.694,0,0,0-2.548.884c-1.612.676-4.056,1.612-7.124,2.912-.1,0-.1.364-.208.416a7.245,7.245,0,0,1-1.976.468,2,2,0,0,1-1.3-.52c0-2.028,2.808-4.316,4.42-5.408.78-.52,1.716-1.3,2.756-1.976A9.974,9.974,0,0,0,52.884-16.016Zm8.944,18.2c.832,0,1.768-2.964,2.7-2.964.052,0,.1,0,.1.052,0,.468-.624,3.38-.624,3.536v.208c0,1.04-.832,2.34-.832,3.016,0,.26.208.26.208.364,0,0-.364,1.872-.52,2.548-.208.728-.832,1.612-.988,2.34-.52,1.456-.884,2.548-1.4,3.8a27.333,27.333,0,0,1-1.2,3.8c-.052.052-.416.052-.416.208-.624,1.2-1.144,3.172-1.768,4.316-.416.728-.832,1.508-1.2,2.236a7.356,7.356,0,0,0-1.2,2.132c-1.456,1.508-2.028,3.068-3.536,4.42a7.089,7.089,0,0,1-3.068.624,11.868,11.868,0,0,1-.208-2.34,22.084,22.084,0,0,1,1.872-7.956,13.543,13.543,0,0,1,.832-2.444c.364-.832.884-1.56,1.352-2.392.52-.936,1.144-2.392,1.768-3.536A42.294,42.294,0,0,1,56.94,9.2a35.965,35.965,0,0,1,2.7-4V5.044c0-.676.728-.884,1.092-1.248C60.84,3.536,60.84,3.328,61.828,2.184ZM97.656-2.548c.988,1.04,1.352,1.872,2.184,1.872.364,0,.728-.156,1.248-.156a6.583,6.583,0,0,1,1.4.208c.364,0,.416-.208,1.456-.52.52-.208.52-.78,1.3-.78.208,0,.416.052.624.052.416,0,.312-.26.468-.416a2.232,2.232,0,0,1,.728-.208c.26-.156.572-.468.832-.624,2.548-.832,1.248-1.3,2.132-1.3h.468a7.424,7.424,0,0,0,1.4-.78c.884-.572.52-.572,1.4-1.144,3.016-2.08,3.12-2.86,6.084-4.368.26-.832,2.08-1.144,2.652-1.716.156-.1.156-.52.312-.676.364-.468.988-.572.988-1.4,0-.156-.052-.78-.208-.78a18.987,18.987,0,0,0-2.08,1.768c-.988.832-1.56,1.04-2.6,1.872-.26.156-.728.208-.988.364a29.877,29.877,0,0,1-2.548,2.028c-.312.208-.364.78-.624.988-.52.364-1.3.416-1.82.78a26.826,26.826,0,0,1-4.94,3.224c-1.768.78-3.744,2.392-5.668,2.392a2.568,2.568,0,0,1-2.7-1.976c0-.416.156-.936.156-1.4a1.765,1.765,0,0,0-.26-.988A9.622,9.622,0,0,0,100.2-9.256a15.491,15.491,0,0,0,.728-3.328c.728-.884.416-1.3.676-2.86a2.158,2.158,0,0,0-2.236-2.34c-1.924,0-4,1.976-5.3,2.964-1.2,1.04-.728-.208-3.484,2.548-.312.208-.572.208-.884.468a18.91,18.91,0,0,1-2.5,2.08c.312-2.34,1.3-3.952,1.872-6.084-.208-.832-1.2-.936-2.028-1.248L84.032-6.084a3.7,3.7,0,0,0,.988,1.04c1.248-.1,4.368-3.692,4.732-4.056a2.6,2.6,0,0,0,.416-.364c2.444-2.236,4.836-3.64,6.656-5.2.676-.364,1.144-.936,2.132-.988a3.683,3.683,0,0,1,.052.78c0,.364-.052.572.052.572a15.8,15.8,0,0,0-.676,2.392c0,.208.156.312.156.416,0,.52-.416.312-.416.884,0,.26.052.468.052.676,0,.468-.572.936-.572,1.4,0,.26.1.624.1.884,0,.728-.572,1.3-.572,1.872A11.178,11.178,0,0,0,97.656-2.548ZM180.8-14.768a.182.182,0,0,1-.1.052c-.624.78-1.456.728-2.184,1.092a5.822,5.822,0,0,1-1.04.884,5.893,5.893,0,0,1-1.4.676c-.312.78-.884.884-1.716,1.3a.228.228,0,0,0-.052.156,2.252,2.252,0,0,0,.052.26.191.191,0,0,1-.156.052h-.208c-.312,0-1.456,1.352-2.028,1.924-1.768,1.4-4.264,3.9-4.524,3.9-.1,0-.156,0-.208-.052a13.447,13.447,0,0,1-2.392,2.5c-.416.26-2.392,3.12-3.016,3.12a.051.051,0,0,1-.052-.052,12.408,12.408,0,0,1,1.092-3.484c.156-.52.26-1.04.416-1.56.26-1.04.676-2.08.936-3.12.208-.78.208-1.664.364-2.548.052-.312.26-.52.312-.832,0-.364.052-.832.052-1.352,0-.884-.416-3.484-1.144-3.484h-.26c-.052,0-.052,0-.052-.052V-15.6c0-.52-2.236-.988-2.548-.988a5.415,5.415,0,0,0-2.964,1.04c-.468.208-1.092.364-1.4.52s-.468.624-.78.832c-.208.1-.416.052-.624.208-.208.1-.312.364-.468.52-2.08,1.4-4.316,3.692-4.628,3.692h-.208c-.156,0-.1.26-.208.312-1.248.78-1.456,1.456-2.756,2.548-1.456.936-1.56,1.82-1.976,1.82-.052.052-.208.052-.26.156-.468.416-1.04,1.508-1.56,1.508a.538.538,0,0,0-.208-.052c-.312,0-.416.728-.936.728-.1,0-.156-.052-.26-.1,0-1.82,1.248-2.444,1.248-4.264.468-.1.312-.468.416-.78.156-.676,2.028-3.12,2.236-3.692a28.688,28.688,0,0,1,.832-2.808c-.572-.416-.832-1.04-1.768-1.04a5.191,5.191,0,0,0-1.3,3.276c-.52.364-1.2,2.5-1.2,2.236,0,.312.208.312.208.676-.728.156-.884,1.872-.884,1.508a.161.161,0,0,0,.052.1c0,.364-.52.416-.52.624V-6.6c0,.208-.208.208-.26.416a11.736,11.736,0,0,0-.988,3.744,1.512,1.512,0,0,0-.624,1.3c0,1.04.676,2.08,1.4,2.08.936,0,2.236-1.456,2.7-2.028a1.09,1.09,0,0,0,.416-.312c.208-.208.1-.468.312-.624.728-.884,2.288-2.34,3.016-3.172.676-.312,1.04-1.04,1.56-1.508.26-.26.624-.416.832-.676.884-.728,2.132-1.976,2.808-2.5.1-.1.312-.1.468-.156a46.91,46.91,0,0,1,4.888-3.744,7.364,7.364,0,0,1,1.144-.364,5.232,5.232,0,0,1,2.5-.936c2.756,0,1.4,2.184,2.288,3.068-.624,2.5-.728,4.732-1.144,5.928,0,.052-.26.26-.26.364-.1.26-.052.676-.156.936-.936,3.8-2.184,5.98-3.068,8.84a60.414,60.414,0,0,0-5.772,5.824c-.364.468-.1.78-.468,1.144-.208.208-1.2.156-1.2.416,0,.156.156.416.156.572,0,.312-1.2.884-1.508,1.144-.416.52-.988.884-1.352,1.352-.208.26-.208.728-.416.988-.26.26-.572.416-.78.676-.1.1-.052.364-.156.468-2.5,2.5-2.184,3.952-3.588,4.576v.208a18.189,18.189,0,0,1-1.456,2.6,9.121,9.121,0,0,0-1.352,2.5c0,.1.052.156.052.208,0,.156-.26.1-.312.208a10,10,0,0,0-1.04,4.108,6.353,6.353,0,0,0,.156,1.352c.728.26,1.248.728,1.976,1.04a5.23,5.23,0,0,0,3.64-2.6,14.31,14.31,0,0,0,1.82-2.184V28.34c0-.156.26-.156.312-.312.312-.364.364-.832.936-.988a29.064,29.064,0,0,1,3.068-5.2c1.144-1.872,2.08-3.588,3.12-5.408,0-.1.26-.052.26-.208v-.312c0-.156.728-1.508.988-2.236.1-.052.364-.052.364-.208,0-.1-.052-.26-.052-.312,0-.26.416-.052.416-.78a55.62,55.62,0,0,0,3.068-6.5,17.73,17.73,0,0,1,4.16-4.732c.26-.208,1.092-1.456,1.3-1.612.832-.676,2.5-2.652,3.276-3.172A30.921,30.921,0,0,0,171.7-6.76c.1-.1.312-.1.52-.208a28.48,28.48,0,0,1,3.016-2.5c.156-.208.156-.572.416-.728,1.144-.312,1.352-1.612,2.08-1.612a.751.751,0,0,1,.364.1.66.66,0,0,1-.052-.312c0-.78.832-.884,1.4-.988.052-.364,1.56-1.664,1.3-1.612a.894.894,0,0,1,.416-.052c-.052-.052-.1-.156-.156-.156S180.856-14.768,180.8-14.768ZM144.352,29.64c-.78.832-1.456,2.132-2.808,2.236,0-.1-.052-.26-.052-.416,0-.416.156-.988.156-1.2a.545.545,0,0,0-.156-.312,12.2,12.2,0,0,1,.988-2.236c.52-1.3,1.612-3.588,1.612-3.12a1.506,1.506,0,0,1,.572-1.04c.156-.26,0-.572.26-.936a2.47,2.47,0,0,0,.936-1.456,13.722,13.722,0,0,0,1.976-2.6v-.1c0-.208-.312-.832-.312-1.04,0-.26.52-.1.676-.26.156-.312,0-.572.208-.884.156-.26.936-.52,1.092-.78.364-.624.676-1.664,1.04-1.664s.676-1.3,2.08-1.872c.364-.156.1-.312.364-.364.728-1.612,2.86-2.5,3.8-3.848h.1c.208,0,.26.208.26.364-1.248,2.08-2.08,4.472-3.172,6.6-.572,1.04-1.248,2.08-1.768,3.12-.26.364-.52.728-.78,1.144-.26.832-.52.78-.728,1.144-.156.26-.1.572-.26.832s-.468.416-.624.624c-.1.156-.052.364-.156.52a10.336,10.336,0,0,1-1.716,2.6,9.457,9.457,0,0,0-.78,1.2c-.1.052-.052.312-.156.468s-.468.312-.572.468c-.156.1-.052.364-.208.52A13.4,13.4,0,0,1,144.352,29.64Zm59.956-44.252a4.57,4.57,0,0,1-.676.364,2.269,2.269,0,0,0-.52.416c-.832.468-1.2.416-2.08.988-4.264,2.392-9.516,2.34-11.752,2.34-.52-1.82-.624-3.12-3.588-3.8a2.884,2.884,0,0,1,.884-.156,8.235,8.235,0,0,1,2.236.52c-.052-1.612-2.028-2.34-3.432-2.34-.26,0-.52.052-.728.052-.1,0-.156-.156-.156-.208v-.052c-4.42.572-7.176,4.368-8.06,5.72a12.2,12.2,0,0,0-1.56,5.564,2.509,2.509,0,0,0,.624,2.028c.1.208-.052.52.156.728A3.94,3.94,0,0,0,177.84-.988a3.412,3.412,0,0,0,1.2.208c1.508,0,2.912-.884,4.524-1.3a1.294,1.294,0,0,1,1.04-.884h.416c0-.1-.052-.26-.052-.364,0-.26.78-.52.884-.676.936-.312,2.288-2.86,3.276-3.744.208-.416-.1-.572.416-.988,1.716-.26,1.976-.052,3.692-.364.312-.312,1.56-.312,2.132-.52h.26c.78,0,.884-.78,1.768-.78a2.12,2.12,0,0,0,.832.208c.156-.312.728-.208.728-.624,0-.052-.052-.1-.052-.156h.416a1.312,1.312,0,0,0,1.144-.52c.052,0,.052.1.208.1.832-.052,2.7-1.4,3.328-1.768.1-.052.676-.416.728-.468.208-.936.156-.936.1-.936C204.568-14.56,204.516-14.768,204.308-14.612ZM186.472-6.76c-.156.156-.416.1-.416.26v.312c0,.156-.364,0-.52.156-.312.312-.312.78-.52.988-.572.364-1.456.832-2.132,1.3-.208.156-.26.52-.416.572A4.53,4.53,0,0,1,179.3-2.08c-1.976,0-2.34-1.976-2.34-3.588A6.835,6.835,0,0,1,177.84-9.1c.676-.676,1.352-2.132,2.288-2.756.884-.468,1.664-1.976,2.808-1.976,1.248,0,1.82,2.028,2.86,2.86.468.364,1.352.884,1.612,1.56A10.092,10.092,0,0,1,186.472-6.76Zm51.688-8.164c-.936.052-1.092.156-1.092.26,0,.052.052.1.052.156s-.052.1-.208.156a.191.191,0,0,0-.156-.052c-.312,0-.416.988-.936.988h-.1c-.624,1.04-.988.78-1.716,1.664h-.208c-.572,0-2.912,1.56-3.692,2.34A2.307,2.307,0,0,0,227.968-7.9a.691.691,0,0,0-.364-.156c-.572,0-.884,1.092-1.4,1.2a4.394,4.394,0,0,0-1.924,1.508h-.26c-1.4,0-2.6,1.664-3.432,1.664-.26,0-.572-.156-.832-.156a.964.964,0,0,0-.364.1,4.3,4.3,0,0,1-.728-2.548,16.39,16.39,0,0,1,1.2-5.356c.988-2.912,1.3-3.536,1.4-5.46a2.192,2.192,0,0,0-1.56-.676c-4.524,4.992-6.6,5.772-9.516,8.892a2.251,2.251,0,0,1-.26-.052c-.364,0-.468.26-.78.26h-.1c-.052.416-.624.312-.624.884v.1c-1.508.052-2.184,1.872-3.9,1.872a1.709,1.709,0,0,1-.884-.208c.312-3.536,1.612-6.032,2.756-8.736.1-.624,1.248-.26,1.248-1.144-.156-1.092-.416-1.716-1.82-1.716-.884,0-1.924,3.016-2.288,4.264-.676,1.508-1.716,3.744-1.716,5.148,0,.468.1.988.1,1.508a4.015,4.015,0,0,1-.1.78c.728,1.456,1.456,2.444,2.756,2.444a5.385,5.385,0,0,0,2.7-.832c.208-.1.26-.468.468-.624a7.694,7.694,0,0,0,2.132-1.612c3.068-2.392,6.812-6.032,7.384-6.032.052,0,.1.052.156.052,0,2.028-.676,4-.676,5.72a6.752,6.752,0,0,0,1.248,3.64,3.887,3.887,0,0,0,2.028.936c1.248,0,2.808-.936,3.692-1.352A37.814,37.814,0,0,0,227.4-6.136a4.075,4.075,0,0,1,1.092-.468c.052,0,.1-.364.208-.416A31.85,31.85,0,0,0,231.712-9.2a5.853,5.853,0,0,1,1.144-.416,6.272,6.272,0,0,1,2.184-1.612c.26-.156.156-.312.26-.312l.156.052.884-.832,1.04-.728.676-.832ZM240.6-18.2a1.04,1.04,0,0,1-.728-1.04,2.106,2.106,0,0,1,.572-1.456l1.248.052a1.951,1.951,0,0,1,.052.52C241.748-19.24,241.176-18.824,240.6-18.2Zm23.452,3.692a.565.565,0,0,0-.26-.052c-.572,0-.936.624-1.3.936a4.375,4.375,0,0,0-1.612,1.248c-2.5,2.132-2.912,2.028-5.252,4.16A16.1,16.1,0,0,1,253.344-6.6l-2.028,1.56c-1.456.728-2.236,1.82-4.264,2.652a9.672,9.672,0,0,0-1.2.676,6.419,6.419,0,0,1-2.34.936.907.907,0,0,1-1.092-.676,5.635,5.635,0,0,1,.416-.988,12.388,12.388,0,0,0,1.144-1.4c.052-.156,0-.52.156-.676.312-.52.52-.572.728-1.04a3.833,3.833,0,0,0,.468-1.092,7.078,7.078,0,0,0,1.3-3.588.393.393,0,0,0-.208-.364.944.944,0,0,0,.312-.728c0-.884-.624-1.456-.884-2.236,0-.052-.936-.832-.988-.884-.884-.468-1.3-.988-1.3-1.248v-.156c-.624-.052-1.82-.884-1.82-1.144a3.677,3.677,0,0,0,.1-.624v-.208a11.817,11.817,0,0,0,1.3-2.548v-.052c0-.156.052-.572.052-.572-.208-.52-.936-.884-1.3-1.092-.1,0-.052-.364-.52-.364a3.4,3.4,0,0,0-2.912,2.132.8.8,0,0,0-.156.572,4.841,4.841,0,0,0,1.2,2.7c-.728.936-1.768,1.768-2.236,2.392-.208,0-.208.208-.26.312a9.634,9.634,0,0,0-.988.728,1.135,1.135,0,0,0-.208.26c-.312.208-1.144.624-1.144.884,0,.156.26.208.78.208a2.39,2.39,0,0,0,1.56-.676l.312-.052a6.606,6.606,0,0,0,.884-.728l.208-.156c.624-.468.78-.624.78-.676-.052,0-.208.052-.26.052,0-.156.312-.156,1.4-1.092.1-.1.208-.156.26-.26,1.092.364,0,.26,1.508.936,1.144.572,2.6,1.56,2.6,3.068,0,.572-.208,1.092-.208,1.612a1.839,1.839,0,0,0,.052.312,4.428,4.428,0,0,0-.832,1.508c0,.052.052.208.052.26,0,.208-.312.1-.312.26-.78,1.3-1.456,2.86-2.288,4.316l-.468.52a.691.691,0,0,0-.156.364c0,.156.26.156.26.364,0,.1-.052.156-.156.364.52,1.248.416,2.184,2.6,2.444,1.716.208,4.68-2.132,6.552-3.12.208-.1.572-.208.78-.312l3.224-2.392c.676-.52.624-.624.884-.78.156-.156,1.04-.572,1.144-.676a11.2,11.2,0,0,0,1.144-.988c1.092-.364,1.508-1.144,2.132-1.768.208-.156.52-.156.78-.416.1-.1,0-.52.26-.52h.052a4.211,4.211,0,0,0,1.924-1.56c.884-.78,1.768-1.3,1.872-1.872a.7.7,0,0,1-.052-.26C263.952-14.248,264-14.3,264.056-14.508Zm66.56-.572c-.052-.1-.052-.1-.156-.1a25.727,25.727,0,0,0-2.08,1.768c-.988.832-1.56,1.04-2.6,1.872-.26.156-.676.208-.988.364A30.434,30.434,0,0,1,322.3-9.2c-.312.26-.416.78-.676,1.04-.52.312-1.3.416-1.82.78a26.529,26.529,0,0,1-4.94,3.172c-1.768.832-3.744,2.444-5.668,2.444a2.619,2.619,0,0,1-2.7-1.976c0-.468.208-.936.208-1.4a2.151,2.151,0,0,0-.26-.988A9.528,9.528,0,0,0,307.528-9.2a12.035,12.035,0,0,0,.728-3.328c.78-.832.468-1.248.728-2.808a2.2,2.2,0,0,0-2.288-2.34c-1.872,0-3.952,1.976-5.3,2.964-1.2,1.04-.676-.208-3.484,2.548-.312.208-.572.208-.832.468a25.972,25.972,0,0,1-2.548,2.08c0-.208.1-.26.208-.364.468-1.82,1.3-3.9,1.664-5.72a.191.191,0,0,0-.052-.156,9.283,9.283,0,0,0,.1-1.2c0-.364-.1-.936-.156-1.456C295.2-19.6,295-20.384,293.54-20.8c-.1,0-.364-.312-.416-.312a6.143,6.143,0,0,0-1.56-.208,24.224,24.224,0,0,0-4.16.728c-.728.156-1.2-.052-1.716.468-.1,0-.208-.052-.312-.052-1.664,0-3.068,1.092-3.068.832h.156a5.312,5.312,0,0,0-.728.1A25.245,25.245,0,0,1,275.86-18.1c-1.4,0-1.872-.884-2.6-.884-.312,0-.312.416-.312.572,0,.988,1.716,1.82,2.028,1.924a10.364,10.364,0,0,0,1.768.26,21.274,21.274,0,0,0,4.42-.936c.156-.052.364-.052,1.976-.572a38.174,38.174,0,0,1,8.476-1.976c.156,0,.156.156.364.156.156,0,.208-.052.364-.052a6.149,6.149,0,0,1,2.028.52c.26.832.1,1.56.364,2.184a.558.558,0,0,1-.312-.1l-2.132,7.748a.27.27,0,0,0-.1.208V-9l-.832,2.964a2.841,2.841,0,0,0,1.04,1.04c1.2-.052,4.368-3.692,4.68-4,.1-.156.312-.208.468-.364,2.392-2.236,4.784-3.64,6.6-5.252.728-.312,1.2-.884,2.132-.936a3.538,3.538,0,0,1,.1.78,1.605,1.605,0,0,1-.1.572l.052.052c.052,0,.052-.052.1-.052a11.962,11.962,0,0,0-.728,2.392c0,.208.208.26.208.416,0,.52-.468.312-.468.884,0,.26.052.468.052.676,0,.468-.572.884-.572,1.4,0,.26.1.572.1.884,0,.676-.572,1.248-.572,1.872a13.82,13.82,0,0,0,.52,3.224l.78.988c.364.052.832.832,1.456.832.312,0,.676-.1,1.248-.1a8.508,8.508,0,0,1,1.352.156c.364,0,.416-.156,1.456-.52.52-.156.52-.78,1.3-.728.208,0,.416.052.624.052.468,0,.312-.26.52-.416.156-.208.52-.156.676-.26.312-.1.624-.468.884-.572,2.5-.832,1.248-1.3,2.08-1.3h.52c.156,0,1.2-.728,1.352-.78.884-.572.52-.572,1.456-1.2,2.964-2.028,3.068-2.808,6.032-4.316.26-.884,2.08-1.2,2.652-1.716.208-.1.208-.52.312-.676.416-.468.988-.624.988-1.4C330.668-14.612,330.616-14.82,330.616-15.08Zm11.544.416a4.53,4.53,0,0,0-1.768-3.38c-.26-.208-.572-.052-.832-.26-.312-.156-.416-.52-.572-.52a6.278,6.278,0,0,0-1.768-.26c-4.576,0-7.956,5.252-10.192,7.8a.879.879,0,0,0-.1.26c0,.364.26.728.26.936,0,.1,0,.1-.156.156a.566.566,0,0,0-.52-.364h-.1c.208.468.312.468.312.676,0,0,0,.468-.208.468h-.364c-.208,0-.312.052-.312.208a.565.565,0,0,0,.052.26c.052.312.572,0,.572.312a.313.313,0,0,1-.052.208c-.26,0-.416-.052-.52-.052-.364,0-.52.156-1.04.312a1.539,1.539,0,0,1,.1.52c0,.936-.728,1.82-.728,3.224,0,1.664,1.976,2.652,3.328,2.652A4.4,4.4,0,0,0,330.2-2.6a6.3,6.3,0,0,1,1.04-.364c.052,0,.1-.26.208-.312,2.6-1.768,3.9-2.444,5.1-4,.624,0,1.248-.728,1.612-1.04,1.456-1.4,2.808-2.184,4-3.588.884-.364,1.4-1.2,2.184-1.612a9.353,9.353,0,0,0-.78,2.6,13.116,13.116,0,0,0-.832,3.484c0,.988.52,1.144.52,1.872,0,1.04,2.236,3.224,4.16,3.224,1.092,0,1.508-.884,2.184-1.4,0,.26.1.26.312.26h.728a1.065,1.065,0,0,1,1.04-.468c.52-.884,1.508-1.2,2.288-1.716.156-.156.208-.312.416-.416.728-.52,1.768-.52,2.444-1.092.728-.676,1.612-1.144,1.716-1.872,1.508,0,.624-.624,1.82-.936,0-.364.624-1.144.624-1.508.884,0,2.288-.364,2.288-1.2a1.613,1.613,0,0,0,1.508-1.456,1.825,1.825,0,0,0-.312-.832c-.1.052-2.08,1.352-1.872,1.508l-.1.1h-.26c-.1,0-.26.26-.26.416a3.66,3.66,0,0,1-1.2.78c-.364.156-.728.676-.936.884-.728.728-1.248.624-2.08,1.3a18.953,18.953,0,0,1-5.408,3.172c0,.832-.884,1.092-1.3,1.092H350.9c-.052.78-2.392,1.664-3.744,1.664-1.248,0-2.184-.468-2.184-2.08,0-3.848,1.664-6.188,2.34-9.36-.572-.364-.78-.988-1.56-.988-.312,0-.624.26-.936.26a.455.455,0,0,1-.468-.26C343.616-15.912,343.3-14.872,342.16-14.664Zm-13,10.712H329c-.832,0-1.3.52-2.236.52-.208,0-.728,0-.728-.416a7.224,7.224,0,0,1,.1-.78V-4.68s0,.052-.1.156a.313.313,0,0,1-.052-.208c0-.936,1.82-2.132,1.82-4.212,1.768-.936,1.976-3.536,3.848-4.368.156,0,.208.052.312.052.156,0,.156-.468.26-.624.884-.676,1.976-1.976,3.536-2.34a.182.182,0,0,0,.052-.1,1.058,1.058,0,0,0-.052-.26c0-.156.78.052.78-.416,0-.052.26,0,.364,0,.416,0,.936-.1,1.508-.1a1.813,1.813,0,0,1,1.664,2.028c0,3.536-1.56,3.432-5.46,6.916-.052.052-.156.416-.208.468-.208.156-.624.052-.832.208-.416.312-.676.676-.988.936C331.344-5.564,330.148-5.3,329.16-3.952Zm81.692-10.5c-.052-.052-.052-.052-.1-.052-.312,0-1.664,1.2-1.612,1.04a4.452,4.452,0,0,1-1.872,1.664c0,.572-.884.572-1.144.988a20.437,20.437,0,0,0-1.768,2.392c-.26,0-.936.572-1.2.78-.624,0-1.2.988-1.664,1.456-1.716,1.924-3.744,2.7-4.628,3.536a6.385,6.385,0,0,1-3.64,1.768c-2.7,0-2.288-1.04-2.7-1.04a11.8,11.8,0,0,1-.312-1.56.871.871,0,0,1-.156-.572c0-.78.364-1.508.364-2.444a2.151,2.151,0,0,0-.26-.988A9.622,9.622,0,0,0,391.3-10.5a18.921,18.921,0,0,0,.728-3.38,5.563,5.563,0,0,0,.884-3.276c0-2.392-1.3-2.964-2.08-2.964-1.456,0-4.108,2.86-5.72,4.056-1.04.936-2.392,1.716-3.38,2.7-.208.26-.156.624-.364.832-.312.208-.572.208-.884.468a18.91,18.91,0,0,1-2.5,2.08,2.818,2.818,0,0,1-1.924,1.2.66.66,0,0,1-.312-.052c.52-3.276,2.288-5.72,2.288-9a1.46,1.46,0,0,0-1.56-1.352c-1.716,0-3.9,2.392-5.356,3.484-3.172,2.548-4.992,5.564-6.656,5.616.312-2.392,1.3-4,1.872-6.136-.208-.78-1.2-.884-2.028-1.248L361.868-7.384A3.024,3.024,0,0,0,364-5.876c1.092,0,1.508-1.664,2.548-2.808a.691.691,0,0,0,.364-.156c.156-.1.052-.312.26-.52a6.549,6.549,0,0,1,1.508-1.352c.312-.312.364-.572.624-.832a36.355,36.355,0,0,1,2.912-2.444c1.092-.936,2.08-2.184,3.276-2.236a8.611,8.611,0,0,1-1.456,4.68,1.839,1.839,0,0,0,.052.312c0,1.04-.676,2.028-.676,3.016,0,.364.26.52.416.988.624,1.04.26,1.924,1.456,1.976,1.768-.052,4.784-3.64,5.252-4.108a2.6,2.6,0,0,0,.416-.364c3.38-3.12,7.228-7.072,9.1-7.176,0,.208.052.52.052.78s-.052.416-.052.572v.052c.052,0,.052-.052.1-.052a15.8,15.8,0,0,0-.676,2.392c0,.208.156.312.156.416,0,.52-.416.312-.416.884,0,.26.052.468.052.676,0,.468-.572.936-.572,1.4,0,.26.052.572.052.884,0,.728-.52,1.248-.52,1.872,0,.468.208,1.2.208,1.872V-4c0,1.768,1.82,3.38,2.34,3.9a4.59,4.59,0,0,0,1.924.52,3.621,3.621,0,0,0,1.3-.26c.208,0,2.6-1.092,2.7-1.092a6.758,6.758,0,0,0,2.7-1.976c1.248-.78,1.976-1.092,2.34-1.4.416-.26,1.82-2.392,2.5-2.392,0-.676,2.808-2.912,3.172-3.328.312-.312,1.04-1.248,1.612-1.3l-.1-.208c0-.364.832-.572.832-.936,0-.468,1.144-.572,1.144-1.664C410.9-14.248,410.852-14.352,410.852-14.456Zm23.764-.208a29.846,29.846,0,0,0-2.6,2.028c-1.456.364-.676.312-1.664.936-1.092.468-1.924,1.456-3.38,1.612v.1c0,.468-1.872,1.248-2.808,1.716-2.652,1.4-1.768,1.04-4,2.184h-.468c-.416,0-1.248.676-2.392.676-.1,0-.26-.052-.364-.052A12.634,12.634,0,0,1,412.1-4.108c-1.82,0-2.964-1.3-2.964-3.276a8.17,8.17,0,0,1,.728-2.912h.1a26.61,26.61,0,0,0,3.536-1.04c0-.052-.052-.052-.1-.052-.26,0-1.2.26-1.508.26-.052,0-.052,0-.052-.052l-1.3.052,2.392-.572.364-.416,2.6-1.248a20.563,20.563,0,0,1,1.924-.936c-.208.312-3.068,1.872-3.38,2.236a4.923,4.923,0,0,0,1.82-.78,6.774,6.774,0,0,0,2.34-1.664,7.718,7.718,0,0,0,1.456-1.352c.052-.052.1-.1.1-.156-.052,0,0-.156.052-.26.468-.572.572-.832.572-1.04a3.055,3.055,0,0,0-2.912-2.392c-1.82,0-3.016,1.092-4.056,1.924a4.881,4.881,0,0,0-.78.312,11.754,11.754,0,0,1-2.392,2.444,11.714,11.714,0,0,1-1.768,2.444,9.129,9.129,0,0,0-1.352,3.12c0,.208.052.416.052.624,0,.468-.156,1.04-.156,1.3,0,.676.312.884.52,2.236.52.1.52,1.352,1.56,1.612a8.433,8.433,0,0,0,3.328,1.248h.156c.364,0,.676.1.832.1a23.794,23.794,0,0,0,3.224-.832,4.42,4.42,0,0,0,1.3-.26c.052,0,.1-.312.26-.312h.26c.52,0,1.3-.78,1.82-.78.052,0,.1.208.26.208.26,0,1.3-1.144,1.56-1.248s.78-.052.988-.208c.052-.052.052-.364.156-.364.156,0,.26.052.364.052.468,0,1.612-1.04,1.508-.988,1.3-.676,2.444-2.028,3.744-2.34,1.3-1.508,1.768-1.092,3.172-2.392.988-.832,2.288-1.768,2.288-2.548A.44.44,0,0,0,434.616-14.664Zm-21.06-.468c1.352-1.352,2.964-2.7,4.576-2.7a1.061,1.061,0,0,1,1.092.728c-.416.572-1.56,1.352-1.508,1.4-.1.052,0,.26-.156.364-.052.1-.572.156-.78.312-.728.624-1.716,1.82-2.7,1.82-.1,0-.1-.052-.156-.052,0,0-.52.312-.572.468l-1.248.52a.191.191,0,0,0,.052-.156v-.1c-.416.364-.988.468-1.508.832A33.439,33.439,0,0,1,413.556-15.132Z" transform="translate(16.432 22.62)"/>
</svg>
