<svg xmlns="http://www.w3.org/2000/svg" xmlns:xlink="http://www.w3.org/1999/xlink" width="30" height="30" viewBox="0 0 30 30">
  <defs>
    <clipPath id="clip-path">
      <rect id="Rectangle_19" data-name="Rectangle 19" width="30" height="30" transform="translate(1511 209)" fill="#fff" stroke="#414143" stroke-width="1"/>
    </clipPath>
  </defs>
  <g id="icon-sign" transform="translate(-1511 -209)" clip-path="url(#clip-path)">
    <g id="signature" transform="translate(1511 209)">
      <g id="Group_9" data-name="Group 9">
        <g id="Group_8" data-name="Group 8">
          <path id="Path_8" data-name="Path 8" d="M29.6,5.612a.709.709,0,0,0-.95.33l-.694,1.431L27.4,7.106,28.13,5.6s0-.008,0-.013.008-.021.013-.029a3.889,3.889,0,0,0,.289-.983A3.821,3.821,0,0,0,27.3,1.437a4.316,4.316,0,0,0-3.234-1.2,3.687,3.687,0,0,0-.782.142,3.808,3.808,0,0,0-1.251.648,3.432,3.432,0,0,0-.954,1.113s0,.008,0,.013a.014.014,0,0,1,0,.008l-2.594,5.35c-.013.021-.025.042-.038.067a.358.358,0,0,0-.029.071L11.694,21.492a1.453,1.453,0,0,0-.142.678v0l.151,4.463a1.892,1.892,0,0,0,.452,1.159l-.4.8a.712.712,0,1,0,1.276.632l.385-.782c.059,0,.113.008.171.008a1.852,1.852,0,0,0,1.109-.364L18.3,25.449a1.494,1.494,0,0,0,.209-.188c.013-.013.021-.025.033-.038a1.48,1.48,0,0,0,.2-.305L26.775,8.381l.556.268-3.577,7.367a.709.709,0,0,0,.33.95.684.684,0,0,0,.31.071.707.707,0,0,0,.64-.4l3.84-7.91a.735.735,0,0,0,.059-.1.918.918,0,0,0,.038-.1l.958-1.974A.71.71,0,0,0,29.6,5.612ZM13.853,26.951a.472.472,0,0,1-.439.059c-.021-.013-.042-.025-.067-.038l-.033-.013a.458.458,0,0,1-.2-.364l-.1-2.907a8.636,8.636,0,0,0,3.179,1.552Zm3.74-2.916a7.181,7.181,0,0,1-4.5-2.192l6.308-13,4.505,2.179Zm9.429-19.64a2.552,2.552,0,0,1-.184.6l-2.3,4.74-4.51-2.179L22.336,2.8a2.085,2.085,0,0,1,.565-.644,2.441,2.441,0,0,1,.774-.41,2.2,2.2,0,0,1,.473-.088,2.9,2.9,0,0,1,2.142.791A2.426,2.426,0,0,1,27.022,4.395Z" stroke="#414143" stroke-width="0.5"/>
          <path id="Path_9" data-name="Path 9" d="M9.527,28.352c-.18,0-.389,0-.607,0-1.138.013-3.259.034-3.936-.724a1,1,0,0,1-.213-.849A12.4,12.4,0,0,1,6.377,22.7l.113-.213c.222-.414.452-.832.678-1.242a36.97,36.97,0,0,0,1.849-3.66,7.873,7.873,0,0,0,.648-2.627,4.169,4.169,0,0,0-.795-2.774,6.193,6.193,0,0,0-3.079-2.079,21.642,21.642,0,0,0-3.522-.786c-.5-.084-.979-.159-1.418-.251a.71.71,0,1,0-.28,1.393c.468.1.958.176,1.472.259,2.113.347,4.51.736,5.689,2.313.7.933.69,2.28-.029,4a35.549,35.549,0,0,1-1.782,3.518c-.226.41-.46.837-.686,1.259l-.113.209a13.348,13.348,0,0,0-1.765,4.581,2.4,2.4,0,0,0,.569,1.966c.983,1.092,2.928,1.2,4.438,1.2.2,0,.389,0,.569,0,.213,0,.41,0,.577,0h.008a.709.709,0,0,0,.008-1.418Z" stroke="#414143" stroke-width="0.5"/>
        </g>
      </g>
    </g>
  </g>
</svg>
